<svg xmlns="http://www.w3.org/2000/svg" viewBox="0 0 1024 1024" width="1024" height="1024" role="img" aria-label="Social Alpha">
  <defs>
    <linearGradient id="bg-social-alpha" x1="0" y1="0" x2="1" y2="1">
      <stop offset="0" stop-color="#152818"/>
      <stop offset="1" stop-color="#0b1910"/>
    </linearGradient>
    <radialGradient id="blobA-social-alpha" cx="0.5" cy="0.5" r="0.5">
      <stop offset="0" stop-color="#2fda4b" stop-opacity="0.55"/>
      <stop offset="1" stop-color="#2fda4b" stop-opacity="0"/>
    </radialGradient>
    <radialGradient id="blobB-social-alpha" cx="0.5" cy="0.5" r="0.5">
      <stop offset="0" stop-color="#28c38a" stop-opacity="0.5"/>
      <stop offset="1" stop-color="#28c38a" stop-opacity="0"/>
    </radialGradient>
    <radialGradient id="vig-social-alpha" cx="0.5" cy="0.42" r="0.75">
      <stop offset="0" stop-color="#000000" stop-opacity="0"/>
      <stop offset="0.72" stop-color="#000000" stop-opacity="0"/>
      <stop offset="1" stop-color="#000000" stop-opacity="0.5"/>
    </radialGradient>
    <linearGradient id="label-social-alpha" x1="0" y1="0" x2="0" y2="1">
      <stop offset="0" stop-color="#000000" stop-opacity="0"/>
      <stop offset="1" stop-color="#000000" stop-opacity="0.55"/>
    </linearGradient>
    <filter id="soft-social-alpha" x="-30%" y="-30%" width="160%" height="160%">
      <feGaussianBlur stdDeviation="46"/>
    </filter>
    <filter id="iglow-social-alpha" x="-40%" y="-40%" width="180%" height="180%">
      <feDropShadow dx="0" dy="0" stdDeviation="14" flood-color="#45ed61" flood-opacity="0.45"/>
    </filter>
  </defs>

  <rect width="1024" height="1024" fill="url(#bg-social-alpha)"/>

  <g opacity="0.9">
    <circle cx="232" cy="220" r="300" fill="url(#blobA-social-alpha)" filter="url(#soft-social-alpha)"/>
    <circle cx="840" cy="800" r="340" fill="url(#blobB-social-alpha)" filter="url(#soft-social-alpha)"/>
  </g>

  <g stroke="#d7eada" stroke-width="1.4" opacity="0.06">
    <line x1="0" y1="256" x2="1024" y2="256"/>
    <line x1="0" y1="512" x2="1024" y2="512"/>
    <line x1="0" y1="768" x2="1024" y2="768"/>
    <line x1="256" y1="0" x2="256" y2="1024"/>
    <line x1="512" y1="0" x2="512" y2="1024"/>
    <line x1="768" y1="0" x2="768" y2="1024"/>
  </g>

  <g opacity="0.5">
    <path d="M120 470 A 400 400 0 0 1 904 470" fill="none" stroke="#45ed61" stroke-width="3" opacity="0.35"/>
  </g>

  <g transform="translate(512 432)" filter="url(#iglow-social-alpha)"
     color="#d7eada" stroke="#d7eada" stroke-width="20"
     stroke-linecap="round" stroke-linejoin="round" fill="none">
    <polyline points="-150,80 -54,-22 6,38 150,-110" fill="none"/>
    <polyline points="92,-110 150,-110 150,-52" fill="none"/>
    <circle cx="-110" cy="128" r="26"/>
    <circle cx="0" cy="128" r="26"/>
    <circle cx="110" cy="128" r="26"/>
  </g>

  <rect x="0" y="784" width="1024" height="240" fill="url(#label-social-alpha)"/>
  <text x="512" y="892" text-anchor="middle"
        font-family="system-ui, -apple-system, Segoe UI, Roboto, sans-serif"
        font-size="76" font-weight="600" letter-spacing="0.5"
        fill="#d7eada">Social Alpha</text>
  <rect x="460" y="924" width="104" height="6" rx="3" fill="#45ed61"/>

  <rect width="1024" height="1024" fill="url(#vig-social-alpha)"/>
</svg>