<svg xmlns="http://www.w3.org/2000/svg" version="1.1" viewBox="0 0 180 70">
  <path d="M43.3,43.7c0,3-1.1,5.4-3.2,7.5-2.2,2.1-4.7,3.1-7.8,3.1s-5.7-1-7.8-3.1c-2.2-2.1-3.2-4.6-3.2-7.5v-17.6c0-2.9,1.1-5.3,3.2-7.4,2.2-2.1,4.8-3.1,7.8-3.1s4.2.6,5.9,1.7c3.5,2.2,5,5.3,5,7.8s-.6,1.6-1.6,1.6h-3.2c-1,0-1.6-.5-1.7-1.6-.3-1.5-1.9-3.4-4.4-3.4s-4.4,1.9-4.4,4.1v18.2c0,2.2,2,4.1,4.4,4.1s4.7-1.7,4.7-4.5.7-1.6,1.6-1.6h3.1c.9,0,1.6.7,1.6,1.6h0ZM52.9,16.2h3.2c.9,0,1.6.7,1.6,1.6v29.8h13.7c.9,0,1.6.7,1.6,1.6v3.1c0,.9-.7,1.6-1.6,1.6h-18.5c-.9,0-1.6-.7-1.6-1.6V17.8c0-.9.7-1.6,1.6-1.6ZM101.1,26.2v17.7c0,2.9-1.1,5.4-3.2,7.5-2.1,2-4.7,3.1-7.9,3.1s-5.8-1-8-3.1-3.2-4.6-3.2-7.5v-17.6c0-2.9,1.1-5.4,3.2-7.4,2.2-2.1,4.8-3.1,8-3.1s5.8,1,7.9,3.1c2.2,2,3.2,4.5,3.2,7.4h0ZM94.7,44.1v-18.3c0-2.2-2.2-4.1-4.7-4.1s-4.7,1.9-4.7,4.1v18.2c0,2.2,2.2,4.2,4.7,4.2s4.7-1.9,4.7-4.1ZM130.2,17.8v26.1c0,2.9-1.1,5.4-3.2,7.5-2.1,2-4.7,3.1-7.9,3.1s-5.8-1-8-3.1-3.2-4.6-3.2-7.5v-26c0-.9.7-1.6,1.6-1.6h3.2c.9,0,1.6.7,1.6,1.6v26.3c0,2.2,2.2,4.2,4.8,4.2s4.7-1.9,4.7-4.1v-26.4c0-.9.7-1.6,1.6-1.6h3.2c.9,0,1.6.7,1.6,1.6h0ZM148.2,53.8h-9.1c-.9,0-1.6-.7-1.6-1.6V17.8c0-.9.7-1.6,1.6-1.6h9.1c2.9,0,5.4,1,7.4,3.1,2,2,3.1,4.5,3.1,7.4v16.7c0,2.9-1,5.4-3.1,7.4-2,2-4.5,3.1-7.4,3.1h0ZM152.1,43.6v-17.2c0-2.2-1.8-4-4-4h-4.1v25.1h4.1c2.2,0,4-1.7,4-3.9Z"/>
  <polygon points="180 53.7 180 70 163.7 70 163.7 67 177 67 177 53.7 180 53.7"/>
  <polygon points="16.3 67 16.3 70 0 70 0 53.7 3 53.7 3 67 16.3 67"/>
  <polygon points="16.3 0 16.3 3 3 3 3 16.3 0 16.3 0 0 16.3 0"/>
  <polygon points="180 0 180 16.3 177 16.3 177 3 163.7 3 163.7 0 180 0"/>
</svg>