 <svg
                id="poweredby"
                xmlns="http://www.w3.org/2000/svg"
                viewBox="0 0 138 54"
              >
                <path
                 
                  d="M137.7,2.1c0,0,0-.2-.1-.3-.2-.3-.4-.6-.6-.8-.6-.6-1.5-1-2.5-1H3.5C2.5,0,1.7.4,1,1c-.2.2-.4.5-.6.8C.1,2.3,0,2.9,0,3.5v47c0,1.9,1.6,3.5,3.5,3.5h131c1.9,0,3.5-1.6,3.5-3.5V3.5c0-.5,0-1-.3-1.4ZM137.2,50.5c0,1.5-1.2,2.7-2.7,2.7H3.5c-1.5,0-2.7-1.2-2.7-2.7V17.9h136.4v32.6Z"
                />
                <path d="M10.8,10.6h-1.2v2.6c0,.2-.2.4-.4.4h-.8c-.2,0-.4-.2-.4-.4V4.6c0-.2.2-.4.4-.4h2.4c.6,0,1.2.2,1.6.7.4.4.7,1,.7,1.6v1.8c0,.6-.2,1.2-.7,1.6s-1,.7-1.6.7h0ZM11.5,8.4v-2c0-.4-.3-.6-.7-.6h-1.2v3.2h1.2c.4,0,.7-.3.7-.6h0ZM19.4,6.7v4.4c0,.7-.3,1.3-.8,1.9-.5.5-1.2.8-2,.8s-1.4-.3-2-.8-.8-1.1-.8-1.9v-4.4c0-.7.3-1.3.8-1.8.5-.5,1.2-.8,2-.8s1.5.3,2,.8c.5.5.8,1.1.8,1.8h0ZM17.8,11.2v-4.6c0-.6-.5-1-1.2-1s-1.2.5-1.2,1v4.6c0,.6.5,1.1,1.2,1.1s1.2-.5,1.2-1h0ZM23.8,8.8l.5,3.2h.2l.2-3.8v-3.5c0-.2.2-.4.4-.4h.7c.2,0,.4.2.4.4v3.4c0,.1,0,.3,0,.6l-.4,4.7c0,.2-.2.4-.5.4h-1.3c-.2,0-.4-.1-.5-.4l-.5-3.4h-.2l-.5,3.4c0,.2-.2.4-.5.4h-1.3c-.2,0-.4-.1-.5-.4l-.4-4.7c0-.3,0-.5,0-.6v-3.4c0-.2.2-.4.4-.4h.7c.2,0,.4.2.4.4v3.5l.2,3.8h.2l.5-3.2c0-.3.2-.4.4-.4h.9c.2,0,.4.1.4.4ZM31.6,13.6h-4.3c-.2,0-.4-.2-.4-.4V4.6c0-.2.2-.4.4-.4h4.2c.2,0,.4.2.4.4v.8c0,.2-.2.4-.4.4h-3v2.2h2.7c.2,0,.4.2.4.4v.8c0,.2-.2.4-.4.4h-2.7v2.6h3.1c.2,0,.4.2.4.4v.8c0,.2-.2.4-.4.4h0ZM36.5,8.2v-1.8c0-.3-.3-.6-.7-.6h-1.2v3.1h1.2c.4,0,.7-.3.7-.6ZM37.1,10.1l1.3,3.1c0,0,0,.1,0,.2,0,.2-.1.3-.4.3h-.8c-.3,0-.5-.1-.6-.4l-1.1-2.8h-.9v2.8c0,.2-.2.4-.4.4h-.8c-.2,0-.4-.2-.4-.4V4.6c0-.2.2-.4.4-.4h2.4c.6,0,1.2.2,1.6.7.4.4.7,1,.7,1.6v1.7c0,.8-.4,1.5-1,1.9ZM44.2,13.6h-4.3c-.2,0-.4-.2-.4-.4V4.6c0-.2.2-.4.4-.4h4.2c.2,0,.4.2.4.4v.8c0,.2-.2.4-.4.4h-3v2.2h2.7c.2,0,.4.2.4.4v.8c0,.2-.2.4-.4.4h-2.7v2.6h3.1c.2,0,.4.2.4.4v.8c0,.2-.2.4-.4.4h0ZM48.3,13.6h-2.3c-.2,0-.4-.2-.4-.4V4.6c0-.2.2-.4.4-.4h2.3c.7,0,1.3.3,1.8.8s.8,1.1.8,1.9v4.2c0,.7-.3,1.3-.8,1.9-.5.5-1.1.8-1.8.8h0ZM49.2,11.1v-4.3c0-.6-.4-1-1-1h-1v6.3h1c.5,0,1-.4,1-1ZM61,5.8h-1.1v2.1h1.1c.4,0,.7-.3.7-.7v-.8c0-.4-.3-.7-.7-.7h0ZM61,9.5h-1v2.6h1c.4,0,.8-.4.8-.8v-1c0-.3-.3-.8-.8-.8h0ZM58.7,4.2h2.3c.7,0,1.2.2,1.7.6.4.4.7.9.7,1.6v.8c0,.5-.3,1.1-.5,1.3l-.2.2s.1,0,.2.2c0,0,.2.2.3.5.1.3.2.6.2.9v1c0,.7-.2,1.2-.7,1.7-.5.4-1.1.7-1.7.7h-2.2c-.2,0-.4-.2-.4-.4V4.6c0-.2.2-.4.4-.4h0ZM70.1,4.7l-2.2,4.5v4c0,.2-.2.4-.4.4h-.8c-.2,0-.4-.2-.4-.4v-4l-2.2-4.5c0-.1,0-.2,0-.2,0-.2.1-.3.3-.3h.9c.3,0,.5.1.6.4l1.2,2.8,1.2-2.8c.1-.3.3-.4.6-.4h.9c.2,0,.3,0,.3.3s0,0,0,.2h0Z" />
                <g id="elizaos">
                  <path d="M110.4,37.8v-1.3h-2.6v-1.3h-1.3v-6.5s1.3,0,1.3,0h0v-1.3h1.3v-1.3h10.4v1.3h1.3v1.3h1.3v3.9h-3.9v-1.3h-1.3v-1.3h-5.2v1.3h-1.3v1.3h1.3v1.3h7.8v1.3h1.3v1.3h1.3v5.2h-1.3v1.3h-1.3v1.3h-10.4v-1.3h-1.3v-1.3h-1.2v-3.9h3.9v1.3h1.3v1.3h5.2v-1.3h1.3v-1.3c-2.6,0-5.2,0-7.8,0Z" />
                  <path d="M90.8,44.3v-1.3h-1.3v-1.3h-1.3v-1.3h-1.3v-10.4h1.3v-1.3h1.3v-1.3h1.3v-1.3h9.1v1.3h0s1.3,0,1.3,0v1.3h0s1.3,0,1.3,0v1.3h0s1.3,0,1.3,0v10.4h-1.3v1.3h-1.3v1.3h-1.3v1.3h-9.1,0ZM97.4,30h-3.9v1.3h-1.3v1.3h-1.3v5.2h1.3v1.3h1.3v1.3h3.9v-1.3h1.3v-1.3h1.3v-5.2h-1.3v-1.3h0s-1.3,0-1.3,0v-1.3h0Z" />
                  <path d="M8,26.1h14.1v4h-8.9l-.3.4v2.2c0,.1.3.3.4.4h6.8v4h-6.7c-.1.1-.5.4-.5.5v2.2l.4.4h9.1v4h-14.3v-18.2h0Z" />
                  <path d="M80.4,44.3h-5.2l-1.2-3.2-.5-.3h-6.4l-.5.3-1.2,3.2h-4.9l7.2-18.1h0s5.4,0,5.4,0l7.2,18.2ZM70.5,31.7h-.4s-1.8,5-1.8,5l.4.4h3.2l.4-.3s-1.8-5-1.8-5Z" />
                  <polygon points="44.4 44.3 44.4 40.6 44.4 40.5 52.9 30.6 52.9 30.1 44.5 30.1 44.5 26.1 59.6 26.1 59.6 29.9 51 39.7 51 40.3 59.8 40.3 59.8 44.3 44.4 44.3" />
                  <polygon points="23.5 44.3 23.5 26.1 28.4 26.1 28.4 39.9 28.8 40.3 37.4 40.3 37.4 44.3 23.5 44.3" />
                  <rect x="38.4" y="26.1" width="4.9" height="18.2" />
                  <polygon points="126.9 44.3 123 44.3 123 43 124.3 43 124.3 41.7 125.6 41.7 125.6 40.4 126.9 40.4 126.9 44.3" />
                  <polygon points="83 44.3 83 40.4 84.3 40.4 84.3 41.7 85.6 41.7 85.6 43 86.9 43 86.9 44.3 83 44.3" />
                  <path d="M126.9,26.1v3.9h0s-1.2,0-1.2,0c0,0,0,0,0,0v-1.3h-1.3v-1.3h-1.3v-1.3h3.9Z" />
                  <polygon points="86.9 26.1 86.9 27.4 85.6 27.4 85.6 28.7 84.3 28.7 84.3 30 83 30 83 26.1 86.9 26.1" />
                </g>
              </svg>