%TF.GenerationSoftware,KiCad,Pcbnew,9.0.9-9.0.9~ubuntu24.04.1*%
%TF.CreationDate,2026-06-02T04:04:40-07:00*%
%TF.ProjectId,e1-phone-mainboard-routed,65312d70-686f-46e6-952d-6d61696e626f,rev?*%
%TF.SameCoordinates,Original*%
%TF.FileFunction,Other,User*%
%FSLAX46Y46*%
G04 Gerber Fmt 4.6, Leading zero omitted, Abs format (unit mm)*
G04 Created by KiCad (PCBNEW 9.0.9-9.0.9~ubuntu24.04.1) date 2026-06-02 04:04:40*
%MOMM*%
%LPD*%
G01*
G04 APERTURE LIST*
%ADD10C,0.050000*%
G04 APERTURE END LIST*
%TO.C,J_USB_C*%
D10*
X28800000Y-125000000D02*
X39200000Y-125000000D01*
X39200000Y-133000000D01*
X28800000Y-133000000D01*
X28800000Y-125000000D01*
%TO.C,SW_POWER_VOL*%
X21850000Y-25650000D02*
X26150000Y-25650000D01*
X26150000Y-29350000D01*
X21850000Y-29350000D01*
X21850000Y-25650000D01*
%TO.C,J_DISPLAY_TOUCH*%
X46700000Y-5500000D02*
X60300000Y-5500000D01*
X60300000Y-8500000D01*
X46700000Y-8500000D01*
X46700000Y-5500000D01*
%TO.C,J_REAR_CAMERA*%
X41200000Y-16900000D02*
X55800000Y-16900000D01*
X55800000Y-20100000D01*
X41200000Y-20100000D01*
X41200000Y-16900000D01*
%TO.C,J_FRONT_CAMERA*%
X49200000Y-16900000D02*
X67800000Y-16900000D01*
X67800000Y-20100000D01*
X49200000Y-20100000D01*
X49200000Y-16900000D01*
%TO.C,U_CELL*%
X-5000000Y6500000D02*
X25000000Y6500000D01*
X25000000Y-26500000D01*
X-5000000Y-26500000D01*
X-5000000Y6500000D01*
%TO.C,U_WIFI_BT*%
X3250000Y-17800000D02*
X16750000Y-17800000D01*
X16750000Y-28200000D01*
X3250000Y-28200000D01*
X3250000Y-17800000D01*
%TO.C,U_CHARGER*%
X18050000Y-19750000D02*
X22450000Y-19750000D01*
X22450000Y-24250000D01*
X18050000Y-24250000D01*
X18050000Y-19750000D01*
%TO.C,U_USB_PD*%
X23650000Y-16900000D02*
X33850000Y-16900000D01*
X33850000Y-27100000D01*
X23650000Y-27100000D01*
X23650000Y-16900000D01*
%TO.C,J_BATTERY*%
X33700000Y-26200000D02*
X40300000Y-26200000D01*
X40300000Y-29800000D01*
X33700000Y-29800000D01*
X33700000Y-26200000D01*
%TO.C,U_SOC_LPDDR_UFS*%
X-4600000Y-7200000D02*
X65600000Y-7200000D01*
X65600000Y-12800000D01*
X-4600000Y-12800000D01*
X-4600000Y-7200000D01*
%TO.C,U_AUDIO_SPK_MIC*%
X9900000Y-119900000D02*
X18100000Y-119900000D01*
X18100000Y-128100000D01*
X9900000Y-128100000D01*
X9900000Y-119900000D01*
%TO.C,J_TOP_BOTTOM_FLEX_TOP*%
X44450000Y-25100000D02*
X63550000Y-25100000D01*
X63550000Y-29900000D01*
X44450000Y-29900000D01*
X44450000Y-25100000D01*
%TO.C,J_TOP_BOTTOM_FLEX_BOTTOM*%
X44450000Y-116100000D02*
X63550000Y-116100000D01*
X63550000Y-120900000D01*
X44450000Y-120900000D01*
X44450000Y-116100000D01*
%TO.C,D_USB2_ESD*%
X25625000Y-121125000D02*
X28375000Y-121125000D01*
X28375000Y-122475000D01*
X25625000Y-122475000D01*
X25625000Y-121125000D01*
%TO.C,D_CC_ESD*%
X30625000Y-121125000D02*
X33375000Y-121125000D01*
X33375000Y-122475000D01*
X30625000Y-122475000D01*
X30625000Y-121125000D01*
%TO.C,D_VBUS_TVS*%
X36025000Y-121175000D02*
X37975000Y-121175000D01*
X37975000Y-122425000D01*
X36025000Y-122425000D01*
X36025000Y-121175000D01*
%TO.C,USBTP_VBUS*%
X22300000Y-117700000D02*
X23700000Y-117700000D01*
X23700000Y-119100000D01*
X22300000Y-119100000D01*
X22300000Y-117700000D01*
%TO.C,USBTP_CC1*%
X25300000Y-117700000D02*
X26700000Y-117700000D01*
X26700000Y-119100000D01*
X25300000Y-119100000D01*
X25300000Y-117700000D01*
%TO.C,USBTP_CC2*%
X28300000Y-117700000D02*
X29700000Y-117700000D01*
X29700000Y-119100000D01*
X28300000Y-119100000D01*
X28300000Y-117700000D01*
%TO.C,USBTP_DP*%
X31300000Y-117700000D02*
X32700000Y-117700000D01*
X32700000Y-119100000D01*
X31300000Y-119100000D01*
X31300000Y-117700000D01*
%TO.C,USBTP_DN*%
X34300000Y-117700000D02*
X35700000Y-117700000D01*
X35700000Y-119100000D01*
X34300000Y-119100000D01*
X34300000Y-117700000D01*
%TO.C,D_KEYS_ESD*%
X8625000Y-26525000D02*
X11375000Y-26525000D01*
X11375000Y-27875000D01*
X8625000Y-27875000D01*
X8625000Y-26525000D01*
%TO.C,RC_1*%
X1225000Y-28125000D02*
X4775000Y-28125000D01*
X4775000Y-29475000D01*
X1225000Y-29475000D01*
X1225000Y-28125000D01*
%TO.C,RC_2*%
X6225000Y-28125000D02*
X9775000Y-28125000D01*
X9775000Y-29475000D01*
X6225000Y-29475000D01*
X6225000Y-28125000D01*
%TO.C,RC_3*%
X11225000Y-28125000D02*
X14775000Y-28125000D01*
X14775000Y-29475000D01*
X11225000Y-29475000D01*
X11225000Y-28125000D01*
%TO.C,D_DSI_ESD*%
X42225000Y-21125000D02*
X44975000Y-21125000D01*
X44975000Y-22475000D01*
X42225000Y-22475000D01*
X42225000Y-21125000D01*
%TO.C,D_TOUCH_ESD*%
X42225000Y-25525000D02*
X44975000Y-25525000D01*
X44975000Y-26875000D01*
X42225000Y-26875000D01*
X42225000Y-25525000D01*
%TO.C,U_DISP_BIAS*%
X38900000Y-26000000D02*
X44100000Y-26000000D01*
X44100000Y-31200000D01*
X38900000Y-31200000D01*
X38900000Y-26000000D01*
%TO.C,D_CAM0_ESD*%
X41825000Y-10125000D02*
X44575000Y-10125000D01*
X44575000Y-11475000D01*
X41825000Y-11475000D01*
X41825000Y-10125000D01*
%TO.C,D_CAM1_ESD*%
X41825000Y-14125000D02*
X44575000Y-14125000D01*
X44575000Y-15475000D01*
X41825000Y-15475000D01*
X41825000Y-14125000D01*
%TO.C,U_CAM_PWR*%
X41425000Y-18025000D02*
X44975000Y-18025000D01*
X44975000Y-19375000D01*
X41425000Y-19375000D01*
X41425000Y-18025000D01*
%TO.C,RN_CAM_I2C*%
X42525000Y-22175000D02*
X43875000Y-22175000D01*
X43875000Y-23025000D01*
X42525000Y-23025000D01*
X42525000Y-22175000D01*
%TO.C,C_AUDIO*%
X7325000Y-126775000D02*
X8675000Y-126775000D01*
X8675000Y-127625000D01*
X7325000Y-127625000D01*
X7325000Y-126775000D01*
%TO.C,C_AMP*%
X16325000Y-126775000D02*
X17675000Y-126775000D01*
X17675000Y-127625000D01*
X16325000Y-127625000D01*
X16325000Y-126775000D01*
%TO.C,RN_AUDIO_DIG*%
X27325000Y-126775000D02*
X28675000Y-126775000D01*
X28675000Y-127625000D01*
X27325000Y-127625000D01*
X27325000Y-126775000D01*
%TO.C,RN_AUDIO_CTL*%
X38325000Y-126775000D02*
X39675000Y-126775000D01*
X39675000Y-127625000D01*
X38325000Y-127625000D01*
X38325000Y-126775000D01*
%TO.C,D_MIC*%
X11625000Y-118725000D02*
X14375000Y-118725000D01*
X14375000Y-120075000D01*
X11625000Y-120075000D01*
X11625000Y-118725000D01*
%TO.C,D_SPK*%
X46025000Y-118775000D02*
X47975000Y-118775000D01*
X47975000Y-120025000D01*
X46025000Y-120025000D01*
X46025000Y-118775000D01*
%TO.C,U_HAPTIC*%
X56950000Y-126150000D02*
X59050000Y-126150000D01*
X59050000Y-128250000D01*
X56950000Y-128250000D01*
X56950000Y-126150000D01*
%TO.C,C_USBPD*%
X45825000Y-24375000D02*
X47175000Y-24375000D01*
X47175000Y-25225000D01*
X45825000Y-25225000D01*
X45825000Y-24375000D01*
%TO.C,FL_CHG_IN*%
X49825000Y-24375000D02*
X51175000Y-24375000D01*
X51175000Y-25225000D01*
X49825000Y-25225000D01*
X49825000Y-24375000D01*
%TO.C,RN_BAT_SENSE*%
X54125000Y-24375000D02*
X55475000Y-24375000D01*
X55475000Y-25225000D01*
X54125000Y-25225000D01*
X54125000Y-24375000D01*
%TO.C,U_FG*%
X57750000Y-23750000D02*
X60250000Y-23750000D01*
X60250000Y-25850000D01*
X57750000Y-25850000D01*
X57750000Y-23750000D01*
%TO.C,RN_PMIC_CTL*%
X37325000Y-28575000D02*
X38675000Y-28575000D01*
X38675000Y-29425000D01*
X37325000Y-29425000D01*
X37325000Y-28575000D01*
%TO.C,C_PMIC_IN*%
X19325000Y-22375000D02*
X20675000Y-22375000D01*
X20675000Y-23225000D01*
X19325000Y-23225000D01*
X19325000Y-22375000D01*
%TO.C,C_AP_RAILS*%
X24925000Y-22375000D02*
X26275000Y-22375000D01*
X26275000Y-23225000D01*
X24925000Y-23225000D01*
X24925000Y-22375000D01*
%TO.C,C_RF_RAILS*%
X30525000Y-22375000D02*
X31875000Y-22375000D01*
X31875000Y-23225000D01*
X30525000Y-23225000D01*
X30525000Y-22375000D01*
%TO.C,C_CAM_RAILS*%
X36125000Y-22375000D02*
X37475000Y-22375000D01*
X37475000Y-23225000D01*
X36125000Y-23225000D01*
X36125000Y-22375000D01*
%TO.C,C_DISP_RAILS*%
X41725000Y-22375000D02*
X43075000Y-22375000D01*
X43075000Y-23225000D01*
X41725000Y-23225000D01*
X41725000Y-22375000D01*
%TO.C,C_AON*%
X17325000Y-28375000D02*
X18675000Y-28375000D01*
X18675000Y-29225000D01*
X17325000Y-29225000D01*
X17325000Y-28375000D01*
%TO.C,RS_PWR*%
X22225000Y-27825000D02*
X25775000Y-27825000D01*
X25775000Y-29775000D01*
X22225000Y-29775000D01*
X22225000Y-27825000D01*
%TO.C,C_SOC_CORE*%
X19825000Y-7375000D02*
X21175000Y-7375000D01*
X21175000Y-8225000D01*
X19825000Y-8225000D01*
X19825000Y-7375000D01*
%TO.C,RN_LPDDR_DIFF*%
X24825000Y-7375000D02*
X26175000Y-7375000D01*
X26175000Y-8225000D01*
X24825000Y-8225000D01*
X24825000Y-7375000D01*
%TO.C,RN_LPDDR_CA*%
X29825000Y-7375000D02*
X31175000Y-7375000D01*
X31175000Y-8225000D01*
X29825000Y-8225000D01*
X29825000Y-7375000D01*
%TO.C,RN_LPDDR_DQ*%
X34825000Y-7375000D02*
X36175000Y-7375000D01*
X36175000Y-8225000D01*
X34825000Y-8225000D01*
X34825000Y-7375000D01*
%TO.C,RN_UFS*%
X39125000Y-7125000D02*
X41875000Y-7125000D01*
X41875000Y-8475000D01*
X39125000Y-8475000D01*
X39125000Y-7125000D01*
%TO.C,J_DEBUG*%
X43325000Y-15775000D02*
X44675000Y-15775000D01*
X44675000Y-16625000D01*
X43325000Y-16625000D01*
X43325000Y-15775000D01*
%TO.C,D_USIM*%
X50325000Y-27825000D02*
X53675000Y-27825000D01*
X53675000Y-29575000D01*
X50325000Y-29575000D01*
X50325000Y-27825000D01*
%TO.C,U_ESIM*%
X55750000Y-25950000D02*
X62250000Y-25950000D01*
X62250000Y-31450000D01*
X55750000Y-31450000D01*
X55750000Y-25950000D01*
%TO.C,U_GNSS_RF*%
X55525000Y-10075000D02*
X56875000Y-10075000D01*
X56875000Y-10925000D01*
X55525000Y-10925000D01*
X55525000Y-10075000D01*
%TO.C,U_NFC*%
X47900000Y-124100000D02*
X54100000Y-124100000D01*
X54100000Y-130300000D01*
X47900000Y-130300000D01*
X47900000Y-124100000D01*
%TO.C,MN_NFC*%
X49200000Y-128800000D02*
X52800000Y-128800000D01*
X52800000Y-131600000D01*
X49200000Y-131600000D01*
X49200000Y-128800000D01*
%TO.C,U_SENS*%
X8900000Y-14400000D02*
X14100000Y-14400000D01*
X14100000Y-19600000D01*
X8900000Y-19600000D01*
X8900000Y-14400000D01*
%TO.C,MN_CELL_MAIN*%
X5200000Y-5300000D02*
X8800000Y-5300000D01*
X8800000Y-8100000D01*
X5200000Y-8100000D01*
X5200000Y-5300000D01*
%TO.C,RFTP_CELL_MAIN*%
X11500000Y-6000000D02*
X12900000Y-6000000D01*
X12900000Y-7400000D01*
X11500000Y-7400000D01*
X11500000Y-6000000D01*
%TO.C,MN_CELL_DIV*%
X11400000Y-5300000D02*
X15000000Y-5300000D01*
X15000000Y-8100000D01*
X11400000Y-8100000D01*
X11400000Y-5300000D01*
%TO.C,RFTP_CELL_DIV*%
X17700000Y-6000000D02*
X19100000Y-6000000D01*
X19100000Y-7400000D01*
X17700000Y-7400000D01*
X17700000Y-6000000D01*
%TO.C,MN_GNSS*%
X53200000Y-5300000D02*
X56800000Y-5300000D01*
X56800000Y-8100000D01*
X53200000Y-8100000D01*
X53200000Y-5300000D01*
%TO.C,RFTP_GNSS*%
X58300000Y-6000000D02*
X59700000Y-6000000D01*
X59700000Y-7400000D01*
X58300000Y-7400000D01*
X58300000Y-6000000D01*
%TO.C,MN_WIFI0*%
X8200000Y-20100000D02*
X11800000Y-20100000D01*
X11800000Y-22900000D01*
X8200000Y-22900000D01*
X8200000Y-20100000D01*
%TO.C,RFTP_WIFI0*%
X9300000Y-24800000D02*
X10700000Y-24800000D01*
X10700000Y-26200000D01*
X9300000Y-26200000D01*
X9300000Y-24800000D01*
%TO.C,MN_WIFI1*%
X13200000Y-20100000D02*
X16800000Y-20100000D01*
X16800000Y-22900000D01*
X13200000Y-22900000D01*
X13200000Y-20100000D01*
%TO.C,RFTP_WIFI1*%
X14300000Y-24800000D02*
X15700000Y-24800000D01*
X15700000Y-26200000D01*
X14300000Y-26200000D01*
X14300000Y-24800000D01*
%TO.C,TP_VBUS*%
X5300000Y-117300000D02*
X6700000Y-117300000D01*
X6700000Y-118700000D01*
X5300000Y-118700000D01*
X5300000Y-117300000D01*
%TO.C,TP_VBAT*%
X12500000Y-120300000D02*
X13900000Y-120300000D01*
X13900000Y-121700000D01*
X12500000Y-121700000D01*
X12500000Y-120300000D01*
%TO.C,TP_SYS*%
X19700000Y-117300000D02*
X21100000Y-117300000D01*
X21100000Y-118700000D01*
X19700000Y-118700000D01*
X19700000Y-117300000D01*
%TO.C,TP_AON_1V8*%
X26900000Y-120300000D02*
X28300000Y-120300000D01*
X28300000Y-121700000D01*
X26900000Y-121700000D01*
X26900000Y-120300000D01*
%TO.C,TP_IO_1V8*%
X34100000Y-117300000D02*
X35500000Y-117300000D01*
X35500000Y-118700000D01*
X34100000Y-118700000D01*
X34100000Y-117300000D01*
%TO.C,TP_RF_VBAT*%
X41300000Y-120300000D02*
X42700000Y-120300000D01*
X42700000Y-121700000D01*
X41300000Y-121700000D01*
X41300000Y-120300000D01*
%TO.C,TP_CAM_AVDD_2V8*%
X48500000Y-117300000D02*
X49900000Y-117300000D01*
X49900000Y-118700000D01*
X48500000Y-118700000D01*
X48500000Y-117300000D01*
%TO.C,TP_DISP_AVDD_5V5*%
X55700000Y-120300000D02*
X57100000Y-120300000D01*
X57100000Y-121700000D01*
X55700000Y-121700000D01*
X55700000Y-120300000D01*
%TO.C,FID_TL*%
X2500000Y-2500000D02*
X5500000Y-2500000D01*
X5500000Y-5500000D01*
X2500000Y-5500000D01*
X2500000Y-2500000D01*
%TO.C,FID_TR*%
X58500000Y-2500000D02*
X61500000Y-2500000D01*
X61500000Y-5500000D01*
X58500000Y-5500000D01*
X58500000Y-2500000D01*
%TO.C,FID_BR*%
X58500000Y-126500000D02*
X61500000Y-126500000D01*
X61500000Y-129500000D01*
X58500000Y-129500000D01*
X58500000Y-126500000D01*
%TO.C,MH_TL*%
X6400000Y-24400000D02*
X9600000Y-24400000D01*
X9600000Y-27600000D01*
X6400000Y-27600000D01*
X6400000Y-24400000D01*
%TO.C,MH_TR*%
X54400000Y-24400000D02*
X57600000Y-24400000D01*
X57600000Y-27600000D01*
X54400000Y-27600000D01*
X54400000Y-24400000D01*
%TO.C,MH_BL*%
X6400000Y-122400000D02*
X9600000Y-122400000D01*
X9600000Y-125600000D01*
X6400000Y-125600000D01*
X6400000Y-122400000D01*
%TO.C,MH_BR*%
X54400000Y-122400000D02*
X57600000Y-122400000D01*
X57600000Y-125600000D01*
X54400000Y-125600000D01*
X54400000Y-122400000D01*
%TD*%
M02*
