<svg width="1200" height="630" viewBox="0 0 1200 630" fill="none" xmlns="http://www.w3.org/2000/svg">
<rect width="1200" height="630" fill="#FF5800"/>
<path d="M363.225 23.0001C375.943 33.3344 381.278 47.9358 386.492 62.487C393.921 83.2221 398.711 104.573 399.501 126.659C399.99 140.303 398.881 153.781 393.339 166.533C393.221 166.806 393.193 167.117 392.963 168.081C394.594 167.185 395.894 166.637 397.009 165.832C404.627 160.333 409 152.579 411.901 143.892C415.649 132.669 416.128 121.082 415.281 109.406C414.894 104.079 414.185 98.7749 413.667 93.2712C413.711 93.0819 413.659 93.0428 413.659 93.0428C419.494 102.977 423.094 113.756 425.488 124.95C428.505 139.06 430.007 153.284 427.5 167.647C426.798 171.674 425.565 175.608 424.57 179.584C424.427 180.152 424.25 180.711 423.906 181.913C432.843 179.531 439.166 174.185 445.191 167.758C446.144 177.897 444.212 187.241 440.793 196.774C446.192 195.715 449.753 192.279 454.376 189.836C453.465 193.664 452.566 197.496 451.628 201.318C451.464 201.989 451.172 202.637 450.872 203.264C449.993 205.096 450.805 205.981 452.579 206.01C466.664 206.234 480.291 204.47 492.252 196.195C493.579 195.277 494.598 193.734 495.412 192.285C501.258 181.877 503.683 170.493 504.774 158.747C504.824 158.21 504.87 157.673 505.354 157.08C505.659 159.134 505.971 161.186 506.266 163.242C508.231 176.965 508.449 190.723 507.069 204.512C506.815 207.052 506.296 207.477 503.809 206.829C498.372 205.412 492.889 204.553 487.263 205.332C482.235 206.029 478.451 208.648 476.071 213.096C474.481 216.065 475.445 217.859 478.808 218.182C481.728 218.463 484.691 218.271 487.622 218.47C492.32 218.788 497.062 218.945 501.683 219.755C505.857 220.486 506.589 221.836 505.759 225.957C504.658 231.419 503.765 236.779 501.683 241.899C500.202 239.572 498.998 238.334 497.621 236.366C494.818 232.359 490.703 230.621 486.357 228.404C476.572 223.413 466.431 221.751 455.812 225.348C453.78 226.036 451.888 227.158 449.977 228.167C448.889 228.741 447.912 229.062 447.251 227.716C444.535 222.188 439.523 219.422 434.285 216.983C428.996 214.52 423.384 213.547 417.558 213.823C416.161 213.889 415.024 213.76 414.448 212.117C410.478 200.787 403.17 191.88 393.916 184.501C376.078 170.277 355.379 163.526 332.894 162.139C321.464 161.434 309.973 161.641 298.509 161.606C293.684 161.592 289.092 162.595 285.65 166.486C285.278 166.906 284.588 167.091 284.01 167.276C260.178 174.9 236.342 182.513 212.505 190.122C210.261 190.838 209.315 190.18 209.612 187.85C210.149 183.627 210.634 179.374 211.571 175.23C213.53 166.561 219.233 160.598 226.66 156.35C234.25 152.009 242.148 148.208 249.864 144.082C254.437 141.637 258.917 139.02 263.707 136.538C264.048 136.646 264.122 136.696 264.196 136.746C259.087 145.575 252.577 153.284 245.12 160.239C245.225 160.518 245.329 160.796 245.434 161.075C248.836 160.391 252.314 159.96 255.629 158.979C270.673 154.527 283.626 146.251 295.741 136.545C299.428 133.591 302.842 130.294 306.542 127.359C307.786 126.372 309.489 125.59 311.053 125.439C333.958 123.231 354.935 129.236 374.548 140.721C379.022 143.341 383.29 146.313 387.682 149.076C390.682 150.964 392.415 150.282 392.789 146.779C393.436 140.719 391.191 135.574 386.074 132.417C380.173 128.777 374.027 125.372 367.63 122.731C353.354 116.838 338.466 113.352 322.908 113.287C322.367 113.285 321.827 113.242 320.66 113.191C321.714 111.787 322.497 110.642 323.38 109.58C334.171 96.6071 343.606 82.7171 351.409 67.754C356.073 58.8107 360.195 49.6293 361.746 39.5322C362.579 34.112 362.359 28.7228 361.097 23.1904C361.739 23.0001 362.385 23.0001 363.225 23.0001Z" fill="white"/>
<path d="M132.656 601.767C141.25 586.549 143.245 574.448 145.187 557.238C147.675 535.187 147.015 513.12 144.934 491.085C142.007 460.088 136.144 429.568 129.738 399.141C128.815 394.759 127.962 390.363 127.45 385.821C129.477 389.27 131.464 392.744 133.538 396.165C145.161 415.338 157.804 433.797 172.067 451.122C172.648 451.828 173.236 452.608 173.537 453.454C178.447 467.253 182.487 481.274 184.418 495.844C186.593 512.249 186.34 528.435 180.53 544.163C180.601 544.123 180.51 544.07 180.419 544.016C180.5 544.164 180.581 544.313 180.662 544.461C188.373 535.358 191.188 524.3 193.113 512.93C194.971 501.955 194.944 490.884 194.423 479.803C194.376 478.806 194.417 477.804 194.417 476.098C195.744 477.516 196.712 478.543 197.671 479.577C211.234 494.204 226.128 507.4 241.352 520.242C242.299 521.041 243.184 521.915 244.15 522.69C251.654 528.716 254.402 536.38 251.431 545.593C248.419 554.933 244.926 564.117 241.715 573.394C237.945 584.288 234.252 595.209 230.442 606.269C197.316 606.419 166.154 604.791 132.656 601.767Z" fill="white"/>
<path d="M514.843 253.451C530.265 260.775 534.548 274.243 532.536 289.819C530.116 308.558 526.819 324.331 515.469 339.637C510.657 346.127 504.468 350.739 496.122 351.736C489.735 352.499 484.034 350.551 478.67 347.297C477.907 346.834 477.17 346.328 476.182 345.687C476.182 346.969 476.117 347.872 476.192 348.764C477.38 362.834 474.782 376.392 470.498 389.681C462.681 413.929 451.046 436.37 437.868 458.069C430.71 469.856 423.119 481.412 418.155 494.387C416.688 498.223 415.353 502.109 413.95 505.969C408.597 520.699 398.378 525.612 383.671 524.745C369.588 523.916 356.363 519.458 343.285 514.583C318.437 505.322 294.631 493.74 270.997 481.799C254.388 473.408 238.068 464.496 222.525 454.219C212.189 447.385 202.771 439.522 194.558 430.203C192.779 428.184 191.946 426.065 191.921 423.515C191.638 394.525 191.298 365.536 191.128 336.545C191.057 324.299 191.248 312.048 191.504 299.804C191.85 283.223 192.363 266.646 192.832 250.069C192.88 248.372 193.112 246.681 193.649 244.951C193.949 248.048 194.251 251.145 194.55 254.243C195.619 265.309 197.727 276.161 201.54 286.625C205.076 296.327 209.8 305.373 217.479 312.494C219.804 314.65 222.693 316.197 225.374 317.954C225.382 317.962 225.341 318.039 225.3 318.117C225.424 318.02 225.547 317.923 225.671 317.826C222.786 313.371 219.43 309.148 217.106 304.418C210.372 290.715 207.766 275.922 206.685 260.825C205.609 245.783 206.742 230.778 207.381 215.755C207.736 207.418 209.164 208.242 214.722 206.66C234.905 200.919 255.143 195.369 275.363 189.759C276.407 189.469 277.482 189.293 278.544 189.07C284.671 187.784 290.169 190.954 291.685 197.108C292.585 200.763 292.856 204.591 293.156 208.361C293.218 209.151 292.354 210.419 291.587 210.797C288.978 212.082 286.222 213.067 282.9 214.421C285.745 215.553 288.122 216.735 290.634 217.434C293.152 218.134 294.034 219.544 294.232 222.063C295.385 236.711 297.821 251.109 303.048 264.927C308.565 279.515 317.014 291.917 330.342 300.417C342.821 308.376 356.367 312.339 371.272 309.586C381.08 307.775 388.773 302.338 395.046 294.784C403.434 284.683 408.287 272.817 411.892 260.375C414.335 251.943 416.013 243.351 416.496 234.565C416.605 232.579 417.472 231.836 419.403 231.874C424.996 231.981 429.938 233.824 433.953 237.672C437.01 240.603 438.421 244.161 437.428 248.621C436.625 252.23 436.45 255.977 435.964 259.659C435.742 261.341 435.397 263.007 435.186 264.69C434.414 270.834 436.725 276.053 440.05 280.997C446.796 291.028 456.124 298.344 465.711 305.357C469.44 308.085 470.505 308.932 468.79 315.071C468.554 316.285 468.431 317.169 468.309 318.057C468.308 318.063 468.306 318.074 468.291 318.091C468.276 318.108 468.296 318.149 468.222 318.26C468.144 318.547 468.139 318.722 468.083 318.977C468.033 319.056 468.043 319.244 467.932 319.364C467.769 319.909 467.717 320.333 467.621 320.843C467.578 320.929 467.584 321.121 467.493 321.19C467.29 321.381 467.258 321.523 467.236 321.84C464.748 326.106 462.746 330.541 459.814 334.239C456.073 338.957 451.557 343.057 447.422 347.466C444.636 350.435 442.31 353.729 441.359 357.763C441.026 359.175 441.112 360.686 440.986 362.435C441.692 362.137 441.936 362.101 442.082 361.962C446.176 358.063 450.286 354.18 454.339 350.24C459.922 344.813 464.399 338.642 466.495 331.031C467.176 328.558 467.39 325.956 467.907 323.301C468.004 322.999 468.012 322.811 468.073 322.508C468.15 322.229 468.174 322.065 468.3 321.816C468.432 321.563 468.462 321.394 468.554 321.129C468.683 320.896 468.716 320.75 468.823 320.496C468.965 320.207 469 320.018 469.128 319.734C469.313 319.393 469.405 319.147 469.631 318.811C470.141 318.777 470.517 318.833 470.894 318.89C472.334 325.215 473.766 331.542 475.233 337.861C475.348 338.356 475.598 338.932 475.974 339.236C481.958 344.064 488.532 347.261 496.492 346.053C501.838 345.242 505.846 342.162 509.152 338.046C515.591 330.028 519.25 320.655 522.146 310.957C524.977 301.477 526.727 291.789 526.296 281.845C525.835 271.203 521.732 262.016 514.69 253.871C514.717 253.633 514.843 253.451 514.843 253.451ZM439.853 402.255C439.599 400.144 438.378 398.578 436.349 398.507C432.802 398.382 429.751 397.118 426.69 395.543C425.57 394.967 424.149 394.732 422.873 394.756C420.404 394.801 417.862 394.823 415.488 395.412C404.225 398.208 393.003 401.169 381.786 404.144C380.545 404.473 379.17 405.021 378.322 405.91C377.471 406.802 376.577 408.429 376.857 409.401C377.128 410.342 378.845 411.393 379.972 411.446C382.176 411.551 384.447 411.159 386.627 410.683C395.749 408.693 404.881 407.979 413.996 410.52C420.005 412.195 426.189 413.515 429.479 419.972C430.742 422.45 433.907 421.609 435.134 418.542C436.658 414.735 438.001 410.851 439.27 406.95C439.716 405.581 439.713 404.066 439.853 402.255ZM434.404 340.035C434.984 339.824 435.606 339.686 436.138 339.387C437.528 338.605 438.917 337.656 438.376 335.791C437.842 333.952 436.157 334.043 434.692 334.214C429.051 334.873 424.414 337.455 420.795 341.813C420.269 342.446 420.055 343.339 419.696 344.112C419.896 344.341 420.096 344.569 420.295 344.798C422.371 343.641 424.338 342.16 426.553 341.416C428.92 340.621 431.52 340.522 434.404 340.035ZM412.979 436.717C411.593 436.588 410.188 436.26 408.829 436.394C407.806 436.495 406.841 437.188 405.85 437.618C406.421 438.619 406.757 439.933 407.603 440.566C411.018 443.121 418.345 442.751 421.637 439.973C422.162 439.53 422.383 438.728 422.745 438.092C422.024 437.774 421.323 437.246 420.579 437.175C418.194 436.949 415.794 436.892 412.979 436.717Z" fill="white"/>
<path d="M376.001 217.96C375.502 215.903 374.286 213.769 374.816 212.241C375.317 210.797 377.735 210.087 379.162 208.88C380.758 207.53 382.187 205.983 383.688 204.522C383.554 204.272 383.421 204.021 383.287 203.77C382.563 203.77 381.833 203.835 381.117 203.759C377.75 203.405 374.378 203.076 371.03 202.584C370.28 202.474 369.433 201.893 368.947 201.279C364.629 195.822 358.733 193.817 352.081 193.17C340.714 192.064 329.879 194.319 319.279 198.128C315.809 199.375 312.411 200.825 308.935 202.2C308.789 201.839 308.609 201.62 308.642 201.439C309.824 194.921 312.187 188.88 316.549 183.841C322.668 176.773 330.856 174.61 339.712 175.577C361.057 177.91 379.875 185.882 394.491 202.113C401.493 209.889 404.859 219.322 404.945 229.779C405.106 249.487 400.88 268.12 390.223 284.903C381.632 298.434 368.122 303.525 352.595 299.622C334.216 295.003 322.016 283.295 314.608 266.249C309.257 253.935 307.051 240.901 306.528 227.562C306.38 223.778 306.478 219.968 306.755 216.192C306.836 215.096 307.684 213.493 308.595 213.109C316.787 209.662 325.303 207.448 334.244 207.164C336.175 207.102 336.767 208.061 336.134 209.834C332.147 220.99 333.402 231.606 339.402 241.741C339.512 241.926 339.515 242.174 339.645 242.708C332.247 241.225 325.586 238.26 318.84 234.988C322.478 242.806 350.222 253.152 363.444 251.764C363.658 249.719 362.172 248.663 360.813 247.792C359.002 246.632 358.959 245.411 359.904 243.716C362.885 238.366 364.301 232.507 365.37 226.541C365.534 225.63 365.694 224.696 366.035 223.845C366.837 221.849 368.542 221.295 370.347 222.505C372.452 223.914 374.463 225.463 376.84 227.186C377.58 223.767 376.63 220.971 376.001 217.96Z" fill="white"/>
<path d="M126.264 309.868C126.597 329.106 128.053 348.039 130.688 366.909C126.112 358.299 123.123 349.175 121.154 338.961C118.927 343.166 115.727 345.233 111.812 345.354C108.086 345.468 104.173 345.254 100.625 344.217C93.8191 342.229 88.4254 337.805 84.1417 332.244C77.9891 324.256 70.7793 317.42 62.7708 311.352C43.2043 296.527 34.0187 276.387 32.7637 252.27C32.095 239.419 32.7656 226.696 37.1922 214.431C39.9839 206.696 44.1658 199.932 50.902 194.962C63.2743 185.834 78.084 186.445 89.7916 196.481C95.567 201.432 99.9344 207.54 104.282 213.669C109.663 221.256 114.965 228.902 121.888 235.222C122.971 236.211 124.072 237.269 125.353 237.931C127.437 239.009 127.787 240.684 127.712 242.753C127.135 258.543 126.504 274.333 126.076 290.127C125.9 296.628 126.18 303.142 126.264 309.868ZM92.2494 299.023C95.1189 300.978 97.9439 303.003 100.872 304.867C103.328 306.431 105.76 308.213 108.462 309.164C112.054 310.428 114.909 308.066 115.071 304.234C115.209 300.956 113.818 298.213 111.86 295.722C110.04 293.407 107.936 291.281 106.358 288.816C104.158 285.383 101.862 281.885 100.456 278.1C98.4032 272.573 98.8514 267.106 103.341 262.592C107.236 258.675 107.57 256.509 105.5 251.397C103.556 246.595 101.947 241.656 99.9329 236.885C97.8013 231.836 95.7652 226.677 92.9743 221.991C88.3507 214.227 81.9368 208.24 73.1996 205.158C64.4178 202.06 56.3612 204.214 51.5049 211.296C49.7821 213.808 48.4349 216.705 47.5093 219.614C44.3015 229.697 43.4885 240.111 44.045 250.626C44.4475 258.23 45.5444 265.737 48.41 272.869C49.0986 274.583 49.9763 276.221 50.767 277.894C51.1964 277.534 51.256 277.377 51.2336 277.232C51.0792 276.237 50.923 275.241 50.7394 274.251C48.4229 261.751 50.0077 249.698 55.0887 238.113C57.1891 233.324 59.9275 228.889 64.4114 225.889C68.2769 223.303 71.5738 224.149 73.5517 228.299C75.5963 232.59 78.7027 235.596 83.2478 237.054C84.9355 237.595 86.188 238.565 86.2799 240.441C86.3741 242.365 85.0624 243.405 83.4829 244.034C81.3987 244.863 79.2323 245.483 77.1349 246.282C69.908 249.033 65.048 253.964 63.3113 261.641C60.6746 273.297 66.5988 286.764 77.4232 292.732C81.998 295.255 87.0789 296.859 92.2494 299.023Z" fill="white"/>
<path d="M489.13 260.099C484.894 261.372 484.083 257.478 482.031 255.931C482.438 254.056 482.804 252.374 483.301 250.087C482.002 250.872 481.299 251.303 480.589 251.723C478.564 252.924 476.498 253.576 474.018 253.483C464.319 253.118 456.616 257.671 449.691 263.896C448.798 264.699 448.085 265.702 447.288 266.613C447.083 266.505 446.878 266.398 446.672 266.29C446.672 265.027 446.527 263.745 446.697 262.506C447.493 256.728 448.842 251.099 451.496 245.849C455.722 237.495 463.588 233.047 472.876 234.406C476.786 234.978 481.48 236.282 485.081 237.944C491.129 239.572 494.851 243.76 497.177 248.645C497.102 251.673 492.06 257.95 489.13 260.099Z" fill="white"/>
<path d="M446.143 275.2C445.505 271.732 447.055 269.875 449.984 268.86C452.904 267.848 455.778 266.689 458.738 265.818C460.397 265.33 461.422 266.378 460.92 267.945C457.866 277.474 458.453 286.854 461.876 296.153C461.947 296.348 461.906 296.585 461.942 297.286C460.644 296.734 459.471 296.419 458.504 295.789C455.07 293.553 451.688 291.235 448.337 288.876C447.831 288.519 447.347 287.803 447.279 287.205C446.835 283.286 446.508 279.353 446.143 275.2Z" fill="white"/>
<path d="M306.797 175.169C306.67 177.143 305.795 178.697 304.012 178.743C302.664 178.778 301.016 178.093 299.988 177.18C298.329 175.706 298.827 172.699 300.595 171.521C302.344 170.356 305.077 171.064 306.186 173.043C306.513 173.626 306.598 174.344 306.797 175.169Z" fill="white"/>
<path d="M342.425 217.762C344.223 217.162 345.543 217.669 346.315 219.143C347.163 220.765 346.963 222.385 345.345 223.427C343.897 224.36 342.5 223.924 341.445 222.615C340.11 220.962 340.372 219.586 342.425 217.762Z" fill="white"/>
<path d="M464.521 279.233C464.126 278.975 463.84 278.803 463.688 278.551C462.678 276.868 462.925 274.747 464.347 274.347C464.927 274.183 466.074 274.81 466.458 275.403C467.445 276.933 466.645 278.481 464.521 279.233Z" fill="white"/>
<path d="M514.648 253.72C514.415 253.726 514.251 253.644 513.98 253.53C513.872 253.498 513.853 253.551 513.853 253.551C514.075 253.457 514.298 253.362 514.682 253.359C514.843 253.451 514.717 253.634 514.648 253.72Z" fill="white"/>
<path d="M513.844 253.499C513.815 253.501 513.92 253.503 513.92 253.503C513.92 253.503 513.841 253.468 513.847 253.51C513.852 253.551 513.872 253.498 513.844 253.499Z" fill="white"/>
<path d="M264.154 135.809C264.22 136.021 264.286 136.233 264.274 136.596C264.122 136.696 264.048 136.646 263.869 136.512C263.88 136.297 263.997 136.167 264.156 135.934C264.199 135.832 264.154 135.809 264.154 135.809Z" fill="white"/>
<path d="M264.215 135.812C264.231 135.793 264.148 135.917 264.148 135.917C264.148 135.917 264.22 135.841 264.187 135.825C264.154 135.809 264.199 135.832 264.215 135.812Z" fill="white"/>
<path d="M413.738 91.0894C413.765 91.0713 413.641 91.2123 413.641 91.2123C413.641 91.2123 413.777 91.1355 413.718 91.102C413.659 91.0685 413.711 91.1075 413.738 91.0894Z" fill="white"/>
<path d="M879.531 279.727C879.531 283.387 879.429 286.182 879.226 288.114H810.147C810.452 294.417 811.977 299.805 814.721 304.278C817.466 308.751 821.075 312.157 825.548 314.495C830.022 316.732 834.901 317.85 840.188 317.85C847.101 317.85 852.895 316.173 857.572 312.818C862.35 309.463 865.501 304.939 867.026 299.246H878.311C876.278 307.379 871.906 314.038 865.196 319.222C858.588 324.305 850.252 326.847 840.188 326.847C832.36 326.847 825.345 325.119 819.144 321.662C812.942 318.104 808.063 313.123 804.504 306.718C801.048 300.212 799.32 292.638 799.32 283.997C799.32 275.355 801.048 267.782 804.504 261.275C807.961 254.769 812.79 249.787 818.991 246.331C825.193 242.874 832.258 241.146 840.188 241.146C848.117 241.146 855.03 242.874 860.927 246.331C866.925 249.787 871.5 254.464 874.651 260.36C877.904 266.155 879.531 272.61 879.531 279.727ZM868.704 279.422C868.805 273.22 867.535 267.934 864.892 263.563C862.35 259.191 858.843 255.887 854.37 253.651C849.896 251.414 845.017 250.296 839.73 250.296C831.801 250.296 825.04 252.837 819.449 257.92C813.857 263.003 810.757 270.171 810.147 279.422H868.704ZM909.735 212.782V325.627H899.061V212.782H909.735ZM939.245 226.659C937.11 226.659 935.28 225.897 933.755 224.372C932.23 222.847 931.468 220.966 931.468 218.73C931.468 216.493 932.23 214.663 933.755 213.24C935.28 211.715 937.11 210.953 939.245 210.953C941.38 210.953 943.21 211.715 944.735 213.24C946.259 214.663 947.022 216.493 947.022 218.73C947.022 220.966 946.259 222.847 944.735 224.372C943.21 225.897 941.38 226.659 939.245 226.659ZM944.582 242.366V325.627H933.908V242.366H944.582ZM974.397 316.782H1018.01V325.627H962.197V316.782L1005.05 251.211H962.96V242.366H1017.25V251.211L974.397 316.782ZM1031.19 283.844C1031.19 275.304 1032.86 267.832 1036.22 261.428C1039.67 254.921 1044.4 249.94 1050.4 246.483C1056.5 242.925 1063.36 241.146 1070.99 241.146C1078.92 241.146 1085.73 242.976 1091.42 246.636C1097.22 250.296 1101.38 254.972 1103.92 260.665V242.366H1114.6V325.627H1103.92V307.175C1101.28 312.869 1097.06 317.596 1091.27 321.357C1085.58 325.017 1078.76 326.847 1070.83 326.847C1063.31 326.847 1056.5 325.068 1050.4 321.51C1044.4 317.952 1039.67 312.919 1036.22 306.413C1032.86 299.907 1031.19 292.384 1031.19 283.844ZM1103.92 283.997C1103.92 277.287 1102.55 271.391 1099.81 266.307C1097.06 261.224 1093.3 257.31 1088.52 254.565C1083.85 251.821 1078.66 250.448 1072.97 250.448C1067.07 250.448 1061.79 251.77 1057.11 254.413C1052.43 257.056 1048.72 260.919 1045.98 266.002C1043.33 270.984 1042.01 276.931 1042.01 283.844C1042.01 290.655 1043.33 296.653 1045.98 301.838C1048.72 306.921 1052.43 310.835 1057.11 313.58C1061.79 316.223 1067.07 317.545 1072.97 317.545C1078.66 317.545 1083.85 316.173 1088.52 313.428C1093.3 310.683 1097.06 306.769 1099.81 301.686C1102.55 296.603 1103.92 290.706 1103.92 283.997Z" fill="white"/>
<path d="M724.797 376.517C724.797 374.579 725.177 372.883 725.938 371.43C726.723 369.954 727.796 368.823 729.157 368.039C730.541 367.231 732.098 366.828 733.828 366.828C735.628 366.828 737.173 367.243 738.465 368.073C739.78 368.904 740.726 369.965 741.303 371.257V367.105H743.725V385.998H741.303V381.811C740.703 383.103 739.746 384.176 738.431 385.029C737.139 385.86 735.593 386.275 733.794 386.275C732.086 386.275 730.541 385.872 729.157 385.064C727.796 384.257 726.723 383.115 725.938 381.638C725.177 380.162 724.797 378.455 724.797 376.517ZM741.303 376.551C741.303 375.029 740.991 373.691 740.368 372.537C739.746 371.384 738.892 370.496 737.808 369.873C736.746 369.25 735.57 368.939 734.278 368.939C732.94 368.939 731.74 369.238 730.679 369.838C729.618 370.438 728.776 371.315 728.153 372.468C727.553 373.599 727.253 374.948 727.253 376.517C727.253 378.063 727.553 379.424 728.153 380.6C728.776 381.754 729.618 382.642 730.679 383.265C731.74 383.864 732.94 384.164 734.278 384.164C735.57 384.164 736.746 383.853 737.808 383.23C738.892 382.607 739.746 381.719 740.368 380.566C740.991 379.412 741.303 378.074 741.303 376.551ZM758.114 366.759C760.374 366.759 762.22 367.462 763.65 368.869C765.08 370.254 765.796 372.272 765.796 374.925V385.998H763.408V375.202C763.408 373.149 762.889 371.58 761.851 370.496C760.836 369.412 759.44 368.869 757.664 368.869C755.841 368.869 754.388 369.446 753.304 370.6C752.219 371.753 751.677 373.449 751.677 375.686V385.998H749.255V367.105H751.677V370.323C752.277 369.169 753.142 368.293 754.272 367.693C755.403 367.07 756.683 366.759 758.114 366.759ZM779.541 376.517C779.541 374.579 779.922 372.883 780.683 371.43C781.468 369.954 782.54 368.823 783.901 368.039C785.286 367.231 786.843 366.828 788.573 366.828C790.372 366.828 791.918 367.243 793.21 368.073C794.525 368.904 795.471 369.965 796.047 371.257V367.105H798.47V385.998H796.047V381.811C795.448 383.103 794.49 384.176 793.175 385.029C791.883 385.86 790.338 386.275 788.538 386.275C786.831 386.275 785.286 385.872 783.901 385.064C782.54 384.257 781.468 383.115 780.683 381.638C779.922 380.162 779.541 378.455 779.541 376.517ZM796.047 376.551C796.047 375.029 795.736 373.691 795.113 372.537C794.49 371.384 793.637 370.496 792.552 369.873C791.491 369.25 790.315 368.939 789.023 368.939C787.685 368.939 786.485 369.238 785.424 369.838C784.363 370.438 783.521 371.315 782.898 372.468C782.298 373.599 781.998 374.948 781.998 376.517C781.998 378.063 782.298 379.424 782.898 380.6C783.521 381.754 784.363 382.642 785.424 383.265C786.485 383.864 787.685 384.164 789.023 384.164C790.315 384.164 791.491 383.853 792.552 383.23C793.637 382.607 794.49 381.719 795.113 380.566C795.736 379.412 796.047 378.074 796.047 376.551ZM811.924 366.828C813.7 366.828 815.246 367.243 816.561 368.073C817.876 368.904 818.822 369.954 819.398 371.222V367.105H821.821V386.483C821.821 388.213 821.44 389.747 820.679 391.085C819.941 392.423 818.902 393.45 817.564 394.165C816.226 394.903 814.704 395.272 812.997 395.272C810.574 395.272 808.556 394.696 806.941 393.542C805.349 392.389 804.357 390.82 803.965 388.836H806.353C806.768 390.151 807.552 391.201 808.706 391.985C809.882 392.769 811.313 393.161 812.997 393.161C814.219 393.161 815.315 392.896 816.284 392.366C817.253 391.858 818.014 391.097 818.568 390.082C819.122 389.067 819.398 387.867 819.398 386.483V381.811C818.799 383.103 817.841 384.176 816.526 385.029C815.234 385.86 813.7 386.275 811.924 386.275C810.194 386.275 808.637 385.872 807.252 385.064C805.891 384.257 804.819 383.115 804.034 381.638C803.273 380.162 802.892 378.455 802.892 376.517C802.892 374.579 803.273 372.883 804.034 371.43C804.819 369.954 805.891 368.823 807.252 368.039C808.637 367.231 810.194 366.828 811.924 366.828ZM819.398 376.551C819.398 375.029 819.087 373.691 818.464 372.537C817.841 371.384 816.988 370.496 815.903 369.873C814.842 369.25 813.666 368.939 812.374 368.939C811.036 368.939 809.836 369.238 808.775 369.838C807.714 370.438 806.872 371.315 806.249 372.468C805.649 373.599 805.349 374.948 805.349 376.517C805.349 378.063 805.649 379.424 806.249 380.6C806.872 381.754 807.714 382.642 808.775 383.265C809.836 383.864 811.036 384.164 812.374 384.164C813.666 384.164 814.842 383.853 815.903 383.23C816.988 382.607 817.841 381.719 818.464 380.566C819.087 379.412 819.398 378.074 819.398 376.551ZM844.445 375.583C844.445 376.413 844.422 377.047 844.376 377.486H828.7C828.769 378.916 829.115 380.139 829.738 381.154C830.361 382.169 831.18 382.942 832.195 383.472C833.21 383.98 834.318 384.234 835.517 384.234C837.086 384.234 838.401 383.853 839.462 383.092C840.546 382.33 841.262 381.304 841.608 380.012H844.168C843.707 381.857 842.715 383.369 841.192 384.545C839.693 385.699 837.801 386.275 835.517 386.275C833.741 386.275 832.149 385.883 830.742 385.099C829.335 384.291 828.227 383.161 827.42 381.708C826.636 380.231 826.243 378.512 826.243 376.551C826.243 374.591 826.636 372.872 827.42 371.395C828.204 369.919 829.3 368.789 830.707 368.004C832.114 367.22 833.718 366.828 835.517 366.828C837.317 366.828 838.885 367.22 840.223 368.004C841.584 368.789 842.623 369.85 843.338 371.188C844.076 372.503 844.445 373.968 844.445 375.583ZM841.988 375.513C842.011 374.106 841.723 372.907 841.123 371.915C840.546 370.923 839.75 370.173 838.735 369.665C837.72 369.158 836.613 368.904 835.413 368.904C833.614 368.904 832.08 369.481 830.811 370.634C829.542 371.788 828.839 373.414 828.7 375.513H841.988ZM857.736 366.759C859.996 366.759 861.842 367.462 863.272 368.869C864.702 370.254 865.418 372.272 865.418 374.925V385.998H863.03V375.202C863.03 373.149 862.511 371.58 861.473 370.496C860.458 369.412 859.062 368.869 857.286 368.869C855.463 368.869 854.01 369.446 852.926 370.6C851.841 371.753 851.299 373.449 851.299 375.686V385.998H848.877V367.105H851.299V370.323C851.899 369.169 852.764 368.293 853.894 367.693C855.025 367.07 856.305 366.759 857.736 366.759ZM873.924 369.146V380.877C873.924 382.03 874.143 382.826 874.581 383.265C875.02 383.703 875.792 383.922 876.9 383.922H879.114V385.998H876.519C874.812 385.998 873.543 385.606 872.713 384.822C871.882 384.014 871.467 382.699 871.467 380.877V369.146H868.837V367.105H871.467V362.364H873.924V367.105H879.114V369.146H873.924ZM908.177 367.105L896.965 394.892H894.439L898.107 385.895L890.356 367.105H893.02L899.457 383.23L905.685 367.105H908.177ZM919.732 386.275C917.956 386.275 916.352 385.883 914.922 385.099C913.515 384.291 912.396 383.161 911.565 381.708C910.758 380.231 910.354 378.512 910.354 376.551C910.354 374.591 910.77 372.883 911.6 371.43C912.431 369.954 913.561 368.823 914.991 368.039C916.422 367.231 918.025 366.828 919.801 366.828C921.578 366.828 923.181 367.231 924.611 368.039C926.065 368.823 927.195 369.954 928.002 371.43C928.833 372.883 929.248 374.591 929.248 376.551C929.248 378.489 928.833 380.196 928.002 381.673C927.172 383.149 926.03 384.291 924.577 385.099C923.123 385.883 921.508 386.275 919.732 386.275ZM919.732 384.164C920.978 384.164 922.131 383.888 923.192 383.334C924.254 382.757 925.107 381.904 925.753 380.773C926.422 379.62 926.757 378.212 926.757 376.551C926.757 374.89 926.434 373.495 925.788 372.364C925.142 371.211 924.288 370.357 923.227 369.804C922.166 369.227 921.012 368.939 919.767 368.939C918.521 368.939 917.367 369.227 916.306 369.804C915.245 370.357 914.391 371.211 913.745 372.364C913.123 373.495 912.811 374.89 912.811 376.551C912.811 378.212 913.123 379.62 913.745 380.773C914.391 381.904 915.233 382.757 916.272 383.334C917.333 383.888 918.486 384.164 919.732 384.164ZM950.031 367.105V385.998H947.609V382.676C947.055 383.853 946.202 384.753 945.048 385.376C943.895 385.998 942.603 386.31 941.173 386.31C938.912 386.31 937.066 385.618 935.636 384.234C934.206 382.826 933.491 380.796 933.491 378.143V367.105H935.878V377.866C935.878 379.92 936.386 381.488 937.401 382.573C938.439 383.657 939.846 384.199 941.623 384.199C943.445 384.199 944.898 383.622 945.983 382.469C947.067 381.315 947.609 379.62 947.609 377.382V367.105H950.031ZM963.95 376.551C963.95 374.591 964.342 372.883 965.127 371.43C965.911 369.954 966.995 368.823 968.379 368.039C969.764 367.231 971.344 366.828 973.12 366.828C975.45 366.828 977.365 367.404 978.864 368.558C980.387 369.711 981.368 371.28 981.806 373.264H979.211C978.888 371.903 978.184 370.842 977.1 370.081C976.038 369.296 974.712 368.904 973.12 368.904C971.851 368.904 970.709 369.192 969.694 369.769C968.679 370.346 967.872 371.211 967.272 372.364C966.695 373.495 966.407 374.89 966.407 376.551C966.407 378.212 966.695 379.62 967.272 380.773C967.872 381.927 968.679 382.792 969.694 383.369C970.709 383.945 971.851 384.234 973.12 384.234C974.712 384.234 976.038 383.853 977.1 383.092C978.184 382.307 978.888 381.223 979.211 379.839H981.806C981.368 381.777 980.387 383.334 978.864 384.51C977.342 385.687 975.427 386.275 973.12 386.275C971.344 386.275 969.764 385.883 968.379 385.099C966.995 384.291 965.911 383.161 965.127 381.708C964.342 380.231 963.95 378.512 963.95 376.551ZM985.172 376.517C985.172 374.579 985.553 372.883 986.314 371.43C987.098 369.954 988.171 368.823 989.532 368.039C990.916 367.231 992.474 366.828 994.204 366.828C996.003 366.828 997.549 367.243 998.841 368.073C1000.16 368.904 1001.1 369.965 1001.68 371.257V367.105H1004.1V385.998H1001.68V381.811C1001.08 383.103 1000.12 384.176 998.806 385.029C997.514 385.86 995.969 386.275 994.169 386.275C992.462 386.275 990.916 385.872 989.532 385.064C988.171 384.257 987.098 383.115 986.314 381.638C985.553 380.162 985.172 378.455 985.172 376.517ZM1001.68 376.551C1001.68 375.029 1001.37 373.691 1000.74 372.537C1000.12 371.384 999.268 370.496 998.183 369.873C997.122 369.25 995.946 368.939 994.654 368.939C993.316 368.939 992.116 369.238 991.055 369.838C989.994 370.438 989.152 371.315 988.529 372.468C987.929 373.599 987.629 374.948 987.629 376.517C987.629 378.063 987.929 379.424 988.529 380.6C989.152 381.754 989.994 382.642 991.055 383.265C992.116 383.864 993.316 384.164 994.654 384.164C995.946 384.164 997.122 383.853 998.183 383.23C999.268 382.607 1000.12 381.719 1000.74 380.566C1001.37 379.412 1001.68 378.074 1001.68 376.551ZM1018.49 366.759C1020.75 366.759 1022.6 367.462 1024.03 368.869C1025.46 370.254 1026.17 372.272 1026.17 374.925V385.998H1023.78V375.202C1023.78 373.149 1023.26 371.58 1022.23 370.496C1021.21 369.412 1019.82 368.869 1018.04 368.869C1016.22 368.869 1014.76 369.446 1013.68 370.6C1012.59 371.753 1012.05 373.449 1012.05 375.686V385.998H1009.63V367.105H1012.05V370.323C1012.65 369.169 1013.52 368.293 1014.65 367.693C1015.78 367.07 1017.06 366.759 1018.49 366.759ZM1044.17 369.146V380.877C1044.17 382.03 1044.39 382.826 1044.83 383.265C1045.27 383.703 1046.04 383.922 1047.15 383.922H1049.36V385.998H1046.77C1045.06 385.998 1043.79 385.606 1042.96 384.822C1042.13 384.014 1041.72 382.699 1041.72 380.877V369.146H1039.09V367.105H1041.72V362.364H1044.17V367.105H1049.36V369.146H1044.17ZM1055.78 370.461C1056.31 369.285 1057.12 368.373 1058.2 367.727C1059.31 367.082 1060.66 366.759 1062.25 366.759V369.285H1061.59C1059.84 369.285 1058.43 369.758 1057.37 370.703C1056.31 371.649 1055.78 373.229 1055.78 375.444V385.998H1053.36V367.105H1055.78V370.461ZM1082.26 367.105V385.998H1079.84V382.676C1079.29 383.853 1078.43 384.753 1077.28 385.376C1076.13 385.998 1074.84 386.31 1073.41 386.31C1071.14 386.31 1069.3 385.618 1067.87 384.234C1066.44 382.826 1065.72 380.796 1065.72 378.143V367.105H1068.11V377.866C1068.11 379.92 1068.62 381.488 1069.63 382.573C1070.67 383.657 1072.08 384.199 1073.85 384.199C1075.68 384.199 1077.13 383.622 1078.22 382.469C1079.3 381.315 1079.84 379.62 1079.84 377.382V367.105H1082.26ZM1094.3 386.275C1092.13 386.275 1090.35 385.779 1088.97 384.787C1087.61 383.772 1086.85 382.4 1086.69 380.669H1089.18C1089.29 381.731 1089.79 382.596 1090.67 383.265C1091.57 383.911 1092.77 384.234 1094.26 384.234C1095.58 384.234 1096.61 383.922 1097.34 383.299C1098.11 382.676 1098.49 381.904 1098.49 380.981C1098.49 380.335 1098.28 379.804 1097.86 379.389C1097.45 378.974 1096.92 378.651 1096.27 378.42C1095.65 378.166 1094.8 377.901 1093.71 377.624C1092.3 377.255 1091.16 376.886 1090.29 376.517C1089.41 376.148 1088.66 375.606 1088.04 374.89C1087.44 374.152 1087.14 373.172 1087.14 371.949C1087.14 371.026 1087.41 370.173 1087.97 369.388C1088.52 368.604 1089.3 367.981 1090.32 367.52C1091.34 367.058 1092.49 366.828 1093.78 366.828C1095.81 366.828 1097.45 367.347 1098.69 368.385C1099.94 369.4 1100.61 370.807 1100.7 372.607H1098.28C1098.21 371.499 1097.77 370.611 1096.96 369.942C1096.18 369.25 1095.1 368.904 1093.71 368.904C1092.49 368.904 1091.5 369.192 1090.74 369.769C1089.97 370.346 1089.59 371.061 1089.59 371.915C1089.59 372.653 1089.81 373.264 1090.25 373.749C1090.71 374.21 1091.28 374.579 1091.95 374.856C1092.62 375.11 1093.52 375.398 1094.65 375.721C1096.01 376.09 1097.09 376.448 1097.9 376.794C1098.71 377.14 1099.4 377.647 1099.97 378.316C1100.55 378.985 1100.85 379.873 1100.87 380.981C1100.87 381.996 1100.6 382.907 1100.04 383.715C1099.49 384.499 1098.72 385.122 1097.73 385.583C1096.73 386.045 1095.59 386.275 1094.3 386.275ZM1108.58 369.146V380.877C1108.58 382.03 1108.8 382.826 1109.24 383.265C1109.68 383.703 1110.45 383.922 1111.56 383.922H1113.77V385.998H1111.18C1109.47 385.998 1108.2 385.606 1107.37 384.822C1106.54 384.014 1106.13 382.699 1106.13 380.877V369.146H1103.5V367.105H1106.13V362.364H1108.58V367.105H1113.77V369.146H1108.58Z" fill="white"/>
</svg>
