<svg xmlns="http://www.w3.org/2000/svg" viewBox="0 0 1024 1024" width="1024" height="1024" role="img" aria-label="Inbox">
  <defs>
    <linearGradient id="bg-inbox" x1="0" y1="0" x2="1" y2="1">
      <stop offset="0" stop-color="#152824"/>
      <stop offset="1" stop-color="#0b1919"/>
    </linearGradient>
    <radialGradient id="blobA-inbox" cx="0.5" cy="0.5" r="0.5">
      <stop offset="0" stop-color="#2fdab8" stop-opacity="0.55"/>
      <stop offset="1" stop-color="#2fdab8" stop-opacity="0"/>
    </radialGradient>
    <radialGradient id="blobB-inbox" cx="0.5" cy="0.5" r="0.5">
      <stop offset="0" stop-color="#2899c3" stop-opacity="0.5"/>
      <stop offset="1" stop-color="#2899c3" stop-opacity="0"/>
    </radialGradient>
    <radialGradient id="vig-inbox" cx="0.5" cy="0.42" r="0.75">
      <stop offset="0" stop-color="#000000" stop-opacity="0"/>
      <stop offset="0.72" stop-color="#000000" stop-opacity="0"/>
      <stop offset="1" stop-color="#000000" stop-opacity="0.5"/>
    </radialGradient>
    <linearGradient id="label-inbox" x1="0" y1="0" x2="0" y2="1">
      <stop offset="0" stop-color="#000000" stop-opacity="0"/>
      <stop offset="1" stop-color="#000000" stop-opacity="0.55"/>
    </linearGradient>
    <filter id="soft-inbox" x="-30%" y="-30%" width="160%" height="160%">
      <feGaussianBlur stdDeviation="46"/>
    </filter>
    <filter id="iglow-inbox" x="-40%" y="-40%" width="180%" height="180%">
      <feDropShadow dx="0" dy="0" stdDeviation="14" flood-color="#45edcb" flood-opacity="0.45"/>
    </filter>
  </defs>

  <rect width="1024" height="1024" fill="url(#bg-inbox)"/>

  <g opacity="0.9">
    <circle cx="232" cy="220" r="300" fill="url(#blobA-inbox)" filter="url(#soft-inbox)"/>
    <circle cx="840" cy="800" r="340" fill="url(#blobB-inbox)" filter="url(#soft-inbox)"/>
  </g>

  <g stroke="#d7eae6" stroke-width="1.4" opacity="0.06">
    <line x1="0" y1="256" x2="1024" y2="256"/>
    <line x1="0" y1="512" x2="1024" y2="512"/>
    <line x1="0" y1="768" x2="1024" y2="768"/>
    <line x1="256" y1="0" x2="256" y2="1024"/>
    <line x1="512" y1="0" x2="512" y2="1024"/>
    <line x1="768" y1="0" x2="768" y2="1024"/>
  </g>

  <g opacity="0.5">
    <path d="M120 470 A 400 400 0 0 1 904 470" fill="none" stroke="#45edcb" stroke-width="3" opacity="0.35"/>
  </g>

  <g transform="translate(512 432)" filter="url(#iglow-inbox)"
     color="#d7eae6" stroke="#d7eae6" stroke-width="20"
     stroke-linecap="round" stroke-linejoin="round" fill="none">
    <path d="M-150 -40 L-110 -130 H110 L150 -40 V120 A20 20 0 0 1 130 140 H-130 A20 20 0 0 1 -150 120 Z"/>
    <path d="M-150 -40 H-44 L-10 24 H10 L44 -40 H150"/>
  </g>

  <rect x="0" y="784" width="1024" height="240" fill="url(#label-inbox)"/>
  <text x="512" y="892" text-anchor="middle"
        font-family="system-ui, -apple-system, Segoe UI, Roboto, sans-serif"
        font-size="76" font-weight="600" letter-spacing="0.5"
        fill="#d7eae6">Inbox</text>
  <rect x="460" y="924" width="104" height="6" rx="3" fill="#45edcb"/>

  <rect width="1024" height="1024" fill="url(#vig-inbox)"/>
</svg>