<svg width="316" height="242" viewBox="0 0 316 242" fill="none" xmlns="http://www.w3.org/2000/svg">
<path d="M157.949 168.153C128.749 173.83 111.154 156.792 106.008 147.561L67.1976 165.82L108.909 164.413L84.1826 207.861L124.745 178.349L120.78 230.141L145.444 181.506L167.598 218.281L157.956 168.153H157.949Z" fill="#B6E368"/>
<path d="M142.958 62.485C172.08 56.4114 189.909 73.2167 195.18 82.3775L233.74 63.5892L192.052 65.5645L216.177 21.79L176.029 51.8466L179.282 -1.52588e-05L155.29 48.9692L132.628 12.4892L142.958 62.485Z" fill="#B6E368"/>
<path fill-rule="evenodd" clip-rule="evenodd" d="M163.846 83.2696H166.474V86.0222H171.995V88.7754H174.481V91.3881H177.241V94.0008H179.869V96.6141H182.63V101.98H185.257V107.478H188.018V131.808H185.257V134.562H182.63V137.314H180.002V140.067H177.241V142.68H174.481V145.293H171.995V148.046H169.234V150.791H160.945V153.256H141.766V150.784H133.617V148.03H130.998V145.278H128.371V142.664H125.61V140.052H122.99V137.307H120.23V134.553H117.461V131.801H114.842V107.47H117.602V101.98H120.23V96.6141H122.99V94.0008H125.751V91.3881H128.371V88.7754H130.998V86.0222H136.519V83.2696H139.146V80.6563H163.846V83.2696ZM136.921 139.525H139.542V144.891H142.302V150.389H149.781V134.553H136.921V139.525ZM152.929 150.389H160.55V144.891H163.31V139.525H166.071V134.553H152.929V150.389ZM120.617 134.159H123.385V136.912H126.146V139.525H128.765V142.138H131.526V144.891H134.153V147.644H139.146V145.425H136.386V140.059H133.758V134.562H125.61V131.948H120.617V134.159ZM177.108 134.553H169.234V140.052H166.474V145.418H163.713V147.636H168.839V144.891H171.326V142.138H174.086V139.525H176.847V136.912H179.474V134.159H182.101V131.941H177.108V134.553ZM117.997 131.414H120.23V128.801H126.146V131.414H133.758V107.872H126.146V110.625H120.23V107.872H117.997V131.414ZM136.914 131.414H149.774V107.872H136.914V131.414ZM152.937 131.414H166.078V107.872H152.937V131.414ZM169.234 131.414H176.714V128.801H182.63V131.414H184.862V107.872H182.489V110.625H176.573V107.872H169.234V131.414ZM139.674 86.4165H136.914V89.1691H131.526V91.9223H128.899V94.535H126.138V97.1483H123.378V102.514H120.75V107.486H125.602V104.733H133.751V99.5066H136.519V93.9933H139.146V88.6274H141.774V86.0147H144.527V83.8032H139.674V86.4165ZM158.466 86.0222H161.085V88.6355H163.713V94.0008H166.474V99.4991H169.234V104.725H177.108V107.478H182.101V102.514H179.474V97.1483H176.714V94.535H174.086V91.9223H171.326V89.1691H166.078V86.4165H163.318V83.8032H158.466V86.0222ZM147.682 86.4084H144.929V89.1616H142.302V94.5275H139.674V99.8934H136.914V104.725H149.774V83.7957H147.682V86.4084ZM152.945 104.725H166.086V99.8934H163.318V94.5275H160.557V89.1616H157.93V86.4084H155.311V83.7957H152.945V104.725Z" fill="#C272FF"/>
<path d="M106.333 83.4974H111.869L108.311 78.8781L114.833 77.4705L108.929 70.7282L113.801 70.596L114.02 69.274L81.1917 57.2125C80.2689 56.8703 79.3383 56.5903 78.3999 56.3648L62.369 15.1333C58.8734 6.14354 50.0134 0.108902 40.3166 0.108902C37.4154 0.108902 34.5454 0.637711 31.8084 1.69533L15.105 8.11102C2.95269 12.7925 -3.1078 26.4249 1.59201 38.5098L24.4889 97.4253C27.9845 106.415 36.8445 112.457 46.5335 112.457C47.8316 112.457 49.1141 112.349 50.3809 112.131C52.8051 114.316 55.636 116.035 58.7952 117.193L91.8347 129.333L87.9716 122.489H95.557L92.9764 116.229H101.18L97.8248 110.054L76.2573 102.13C83.4204 97.433 87.432 89.1821 86.7908 80.7522L111.94 89.9908L106.333 83.4974ZM96.8629 111.159L98.8883 114.868H90.9354L93.5238 121.128H85.6334L88.824 126.782L59.2722 115.918C53.1101 113.655 48.2148 109.145 45.4778 103.227C42.7486 97.3164 42.4984 90.7063 44.774 84.6094L49.1532 72.8745C51.2568 67.2443 55.2528 62.8427 60.1559 60.1131L66.7169 77.0039C66.2633 77.5638 65.888 78.2093 65.6221 78.9247L61.2429 90.6596C60.5938 92.4016 60.6642 94.2835 61.4462 95.9633C62.2204 97.6508 63.6202 98.9417 65.3718 99.5872L96.8629 111.159ZM41.9197 91.4528C41.8102 91.2584 41.7164 91.0485 41.6304 90.8307L18.7256 31.9152C18.0374 30.1577 18.491 28.6568 18.8194 27.9258C19.1557 27.187 19.969 25.8417 21.7363 25.1651L38.432 18.7416C39.0576 18.5006 39.691 18.3839 40.3166 18.3839C42.1152 18.3839 44.3282 19.4182 45.2275 21.7356L59.6554 58.8378C54.4004 61.6996 50.115 66.3889 47.8707 72.4002L43.4915 84.1428C42.6 86.5225 42.0761 88.9877 41.9197 91.4528ZM66.9046 79.3913C67.014 79.088 67.1548 78.8003 67.3112 78.5359L68.1323 80.6434C68.8205 82.4087 68.3669 83.9018 68.0385 84.6328H68.0306C67.71 85.3793 66.9046 86.7169 65.1294 87.3935L63.7218 87.9378L66.9046 79.3913ZM74.6385 101.531L65.8489 98.304C64.4334 97.7908 63.3152 96.7565 62.6896 95.3956C62.064 94.0424 62.0014 92.5338 62.5254 91.134L63.0806 89.6409L65.6221 88.6688C67.8586 87.8134 68.8752 86.1181 69.2897 85.1849C69.7041 84.2595 70.275 82.3775 69.407 80.1534L68.2965 77.2994V77.2683L67.843 76.1329L67.7726 75.9463L61.368 59.4755L61.3524 59.4444L60.9379 58.3712L60.8753 58.2001L46.5022 21.2379C45.3683 18.3217 42.5766 17.023 40.3166 17.023C39.5268 17.023 38.7213 17.1708 37.9393 17.4663L21.2436 23.8897C19.0228 24.7452 17.9905 26.4405 17.5761 27.3659C17.1538 28.2991 16.5829 30.1888 17.4509 32.4129L40.3557 91.3284C40.7076 92.2538 41.2394 93.0237 41.8728 93.6225C41.9432 97.0987 42.733 100.551 44.2344 103.794C45.4778 106.477 47.1356 108.88 49.1375 110.941C48.2695 111.05 47.4093 111.097 46.5335 111.097C37.4076 111.097 29.0558 105.404 25.7636 96.9276L2.86667 38.012C-1.55944 26.6349 4.14915 13.7957 15.5976 9.38639L32.3011 2.97069C34.8817 1.96751 37.5796 1.46981 40.3166 1.46981C49.4503 1.46981 57.7943 7.1545 61.0943 15.631L76.7968 56.0149L76.8516 56.1626L77.3442 57.4302L77.3833 57.5235L83.999 74.5465C84.5308 75.9152 84.914 77.2994 85.1486 78.6992C85.1642 78.7459 85.172 78.7925 85.1799 78.8392C85.2581 79.2591 85.3128 79.6868 85.3519 80.1146C85.3519 80.1534 85.3597 80.1845 85.3597 80.2234C86.2668 88.7155 82.1144 97.1064 74.6385 101.531ZM86.6266 79.2436C86.3841 77.5016 85.9384 75.7519 85.2737 74.0488L79.0099 57.9357C79.5808 58.099 80.1516 58.2779 80.7147 58.4878L110.227 69.3362L105.997 69.4528L112.284 76.6306L105.911 77.9993L109.101 82.1365H103.354L107.459 86.8958L86.6266 79.2436Z" fill="white"/>
<path d="M311.58 194.485L269.993 134.706C265.466 128.197 258.068 124.247 250.131 124.068C247.816 122.007 245.071 120.343 241.959 119.2L212.165 108.25L212.04 108.203L204.775 108.406L210.155 114.541L203.414 115.996L207.496 121.291H202.241L206.464 126.183L227.508 133.913L222.698 137.226C216.505 141.487 212.869 148.059 212.141 154.972L192.795 147.864L196.149 154.015H187.586L190.167 160.276H182.988L185.85 165.338L220.047 177.905C220.384 178.03 220.712 178.146 221.048 178.247L257.99 231.354C262.635 238.018 270.275 242 278.431 242C283.491 242 288.363 240.483 292.539 237.614L305.293 228.842C310.743 225.086 314.403 219.448 315.592 212.962C316.78 206.469 315.357 199.913 311.58 194.485ZM207.269 125.024L205.221 122.652H210.264L205.807 116.874L212.704 115.389L207.715 109.689L211.813 109.572L241.482 120.475C243.922 121.369 246.119 122.606 248.043 124.107C243.531 124.379 239.206 125.864 235.453 128.446L228.884 132.964L207.269 125.024ZM220.516 176.63L219.711 176.334L186.797 164.234L185.327 161.636H192.208L189.628 155.376H198.448L195.727 150.392L212.032 156.379L213.377 156.877L226.139 161.566C227.859 162.196 229.658 162.181 231.269 161.629C231.715 161.489 232.137 161.302 232.544 161.069C234.092 160.221 235.351 158.837 236.008 157.072L238.87 149.419L246.424 144.217C247.37 143.571 248.426 143.237 249.56 143.237C250.436 143.237 252.641 143.47 254.135 145.617L256.277 148.696C256.136 149.241 255.972 149.777 255.785 150.322L251.202 162.632L250.975 163.215C249.059 167.982 245.791 171.793 241.787 174.359C241.404 174.608 241.013 174.849 240.614 175.067C235.109 178.17 228.399 179.056 221.908 177.089C221.447 176.956 220.978 176.801 220.516 176.63ZM231.371 156.543C231.519 155.703 232.027 154.124 233.67 152.997L236.899 150.773L234.725 156.597C234.178 158.075 233.122 159.218 231.824 159.918C231.159 158.541 231.238 157.25 231.371 156.543ZM256.864 151.371L257.083 150.765C257.153 150.555 257.223 150.353 257.286 150.143L295.721 205.395C296.863 207.028 296.777 208.685 296.621 209.525C296.464 210.365 295.964 211.936 294.321 213.071L281.567 221.843C280.621 222.496 279.565 222.823 278.431 222.823C277.555 222.823 275.342 222.597 273.849 220.443L242.569 175.479C246.792 172.757 250.225 168.744 252.25 163.713L256.864 151.371ZM314.247 212.713C313.121 218.849 309.664 224.176 304.511 227.722L291.757 236.494C287.815 239.208 283.209 240.639 278.431 240.639C270.721 240.639 263.503 236.883 259.116 230.584L223.113 178.823C225.052 179.282 226.999 179.499 228.923 179.499C233.341 179.499 237.642 178.333 241.396 176.187L272.723 221.221C274.592 223.896 277.336 224.184 278.431 224.184C279.847 224.184 281.16 223.772 282.341 222.963L295.096 214.191C297.144 212.775 297.778 210.816 297.966 209.766C298.153 208.724 298.271 206.663 296.847 204.626L257.763 148.432L256.684 146.884L255.261 144.839C253.399 142.164 250.655 141.876 249.56 141.876H249.552C248.137 141.876 246.823 142.288 245.642 143.097L239.699 147.188L237.736 148.541L232.888 151.877C230.839 153.284 230.213 155.252 230.018 156.294C229.861 157.173 229.76 158.751 230.557 160.431C229.306 160.797 227.93 160.773 226.616 160.291L213.463 155.462C214.065 148.805 217.521 142.444 223.472 138.346L229.072 134.488L230.448 133.54L236.227 129.566C240.168 126.86 244.782 125.421 249.552 125.421H249.583C250.271 125.421 250.96 125.452 251.632 125.514C258.553 126.121 264.887 129.752 268.867 135.484L310.454 195.263C314.02 200.387 315.365 206.585 314.247 212.713Z" fill="white"/>
<path d="M52.8 151.863L61.0569 151.886L61.05 154.258L52.8 154.235V164.565H50.3752V154.229L41.8665 154.207L41.8733 151.835L50.3752 151.857V141.562H52.8V151.863Z" fill="#C272FF"/>
<path d="M262.327 73.0502L270.583 73.0727L270.577 75.4483L262.327 75.4259V85.7669H259.902V75.4196L251.393 75.3971L251.399 73.0215L259.902 73.044V62.7386H262.327V73.0502Z" fill="#C272FF"/>
<path d="M39.8435 193.609C39.8435 192.802 39.1885 192.147 38.3805 192.147C37.5726 192.147 36.9175 192.802 36.9175 193.609C36.9175 194.416 37.5726 195.07 38.3805 195.07V197.442C36.2608 197.442 34.5425 195.726 34.5425 193.609C34.5425 191.491 36.2608 189.775 38.3805 189.775C40.5002 189.775 42.2186 191.491 42.2186 193.609C42.2186 195.726 40.5002 197.442 38.3805 197.442V195.07C39.1885 195.07 39.8435 194.416 39.8435 193.609Z" fill="#C272FF"/>
<path d="M229.644 84.3443C231.763 84.3443 233.482 86.0608 233.482 88.1781C233.482 90.2955 231.763 92.012 229.644 92.012C227.524 92.012 225.806 90.2955 225.806 88.1781C225.806 86.0608 227.524 84.3443 229.644 84.3443Z" fill="#C272FF"/>
<path d="M266.105 99.6797C268.225 99.6797 269.943 101.396 269.943 103.513C269.943 105.631 268.225 107.347 266.105 107.347C263.986 107.347 262.267 105.631 262.267 103.513C262.267 101.396 263.986 99.6797 266.105 99.6797Z" fill="#C272FF"/>
<path d="M64.7909 178.912C64.7909 178.105 64.1359 177.451 63.3279 177.451C62.52 177.451 61.8649 178.105 61.8649 178.912C61.8649 179.719 62.52 180.374 63.3279 180.374V182.746C61.2082 182.746 59.4899 181.03 59.4899 178.912C59.4899 176.795 61.2082 175.078 63.3279 175.078C65.4476 175.078 67.166 176.795 67.166 178.912C67.166 181.03 65.4476 182.746 63.3279 182.746V180.374C64.1359 180.374 64.7909 179.719 64.7909 178.912Z" fill="#C272FF"/>
</svg>
