%TF.GenerationSoftware,KiCad,Pcbnew,9.0.9-9.0.9~ubuntu24.04.1*%
%TF.CreationDate,2026-05-20T23:55:20-07:00*%
%TF.ProjectId,e1-phone-mainboard-demo,65312d70-686f-46e6-952d-6d61696e626f,concept-routing-demo-r0*%
%TF.SameCoordinates,Original*%
%TF.FileFunction,Copper,L4,Inr*%
%TF.FilePolarity,Positive*%
%FSLAX46Y46*%
G04 Gerber Fmt 4.6, Leading zero omitted, Abs format (unit mm)*
G04 Created by KiCad (PCBNEW 9.0.9-9.0.9~ubuntu24.04.1) date 2026-05-20 23:55:20*
%MOMM*%
%LPD*%
G01*
G04 APERTURE LIST*
%TA.AperFunction,WasherPad*%
%ADD10C,2.000000*%
%TD*%
%TA.AperFunction,ViaPad*%
%ADD11C,0.450000*%
%TD*%
%TA.AperFunction,Conductor*%
%ADD12C,0.250000*%
%TD*%
G04 APERTURE END LIST*
D10*
%TO.N,*%
%TO.C,*%
X3000000Y-3000000D03*
%TD*%
%TO.N,*%
%TO.C,*%
X61000000Y-3000000D03*
%TD*%
%TO.N,*%
%TO.C,*%
X3000000Y-129000000D03*
%TD*%
%TO.N,*%
%TO.C,*%
X61000000Y-129000000D03*
%TD*%
D11*
%TO.N,GND*%
X2000000Y-2000000D03*
X2000000Y-10000000D03*
X2000000Y-18000000D03*
X2000000Y-26000000D03*
X2000000Y-122000000D03*
X2000000Y-130000000D03*
X10000000Y-2000000D03*
X10000000Y-10000000D03*
X10000000Y-18000000D03*
X10000000Y-26000000D03*
X10000000Y-122000000D03*
X10000000Y-130000000D03*
X18000000Y-2000000D03*
X18000000Y-10000000D03*
X18000000Y-18000000D03*
X18000000Y-26000000D03*
X18000000Y-122000000D03*
X18000000Y-130000000D03*
X26000000Y-2000000D03*
X26000000Y-10000000D03*
X26000000Y-18000000D03*
X26000000Y-26000000D03*
X26000000Y-122000000D03*
X26000000Y-130000000D03*
X34000000Y-2000000D03*
X34000000Y-10000000D03*
X34000000Y-18000000D03*
X34000000Y-26000000D03*
X34000000Y-122000000D03*
X34000000Y-130000000D03*
X42000000Y-2000000D03*
X42000000Y-10000000D03*
X42000000Y-18000000D03*
X42000000Y-26000000D03*
X42000000Y-122000000D03*
X42000000Y-130000000D03*
X50000000Y-2000000D03*
X50000000Y-10000000D03*
%TO.N,I2C0_SCL*%
X50000000Y-18000000D03*
%TO.N,GND*%
X50000000Y-26000000D03*
X50000000Y-122000000D03*
X50000000Y-130000000D03*
X58000000Y-2000000D03*
X58000000Y-10000000D03*
%TO.N,CAM0_CSI_CLK_N*%
X58000000Y-18000000D03*
%TO.N,GND*%
X58000000Y-26000000D03*
X58000000Y-122000000D03*
X58000000Y-130000000D03*
%TD*%
D12*
%TO.N,+1V8*%
X50000000Y-122000000D02*
X50000000Y-40000000D01*
%TD*%
M02*
