%TF.GenerationSoftware,KiCad,Pcbnew,9.0.9-9.0.9~ubuntu24.04.1*%
%TF.CreationDate,2026-05-20T23:55:20-07:00*%
%TF.ProjectId,e1-phone-mainboard-demo,65312d70-686f-46e6-952d-6d61696e626f,concept-routing-demo-r0*%
%TF.SameCoordinates,Original*%
%TF.FileFunction,Paste,Top*%
%TF.FilePolarity,Positive*%
%FSLAX46Y46*%
G04 Gerber Fmt 4.6, Leading zero omitted, Abs format (unit mm)*
G04 Created by KiCad (PCBNEW 9.0.9-9.0.9~ubuntu24.04.1) date 2026-05-20 23:55:20*
%MOMM*%
%LPD*%
G01*
G04 APERTURE LIST*
G04 Aperture macros list*
%AMRoundRect*
0 Rectangle with rounded corners*
0 $1 Rounding radius*
0 $2 $3 $4 $5 $6 $7 $8 $9 X,Y pos of 4 corners*
0 Add a 4 corners polygon primitive as box body*
4,1,4,$2,$3,$4,$5,$6,$7,$8,$9,$2,$3,0*
0 Add four circle primitives for the rounded corners*
1,1,$1+$1,$2,$3*
1,1,$1+$1,$4,$5*
1,1,$1+$1,$6,$7*
1,1,$1+$1,$8,$9*
0 Add four rect primitives between the rounded corners*
20,1,$1+$1,$2,$3,$4,$5,0*
20,1,$1+$1,$4,$5,$6,$7,0*
20,1,$1+$1,$6,$7,$8,$9,0*
20,1,$1+$1,$8,$9,$2,$3,0*%
G04 Aperture macros list end*
%ADD10RoundRect,0.100000X-0.150000X-0.275000X0.150000X-0.275000X0.150000X0.275000X-0.150000X0.275000X0*%
%ADD11C,1.000000*%
G04 APERTURE END LIST*
D10*
%TO.C,J_USB_C*%
X26500000Y-131700000D03*
X27864000Y-131700000D03*
X29227000Y-131700000D03*
X30591000Y-131700000D03*
X31955000Y-131700000D03*
X33318000Y-131700000D03*
X34682000Y-131700000D03*
X36045000Y-131700000D03*
X37409000Y-131700000D03*
X38773000Y-131700000D03*
X40136000Y-131700000D03*
X41500000Y-131700000D03*
X26500000Y-126300000D03*
X27864000Y-126300000D03*
X29227000Y-126300000D03*
X30591000Y-126300000D03*
X31955000Y-126300000D03*
X33318000Y-126300000D03*
X34682000Y-126300000D03*
X36045000Y-126300000D03*
X37409000Y-126300000D03*
X38773000Y-126300000D03*
X40136000Y-126300000D03*
X41500000Y-126300000D03*
%TD*%
%TO.C,U_USB_PD*%
X12500000Y-123700000D03*
X12773000Y-123700000D03*
X13045000Y-123700000D03*
X13318000Y-123700000D03*
X13591000Y-123700000D03*
X13864000Y-123700000D03*
X14136000Y-123700000D03*
X14409000Y-123700000D03*
X14682000Y-123700000D03*
X14955000Y-123700000D03*
X15227000Y-123700000D03*
X15500000Y-123700000D03*
X12500000Y-120300000D03*
X12773000Y-120300000D03*
X13045000Y-120300000D03*
X13318000Y-120300000D03*
X13591000Y-120300000D03*
X13864000Y-120300000D03*
X14136000Y-120300000D03*
X14409000Y-120300000D03*
X14682000Y-120300000D03*
X14955000Y-120300000D03*
X15227000Y-120300000D03*
X15500000Y-120300000D03*
%TD*%
%TO.C,U_CHARGER*%
X12000000Y-112200000D03*
X12267000Y-112200000D03*
X12533000Y-112200000D03*
X12800000Y-112200000D03*
X13067000Y-112200000D03*
X13333000Y-112200000D03*
X13600000Y-112200000D03*
X13867000Y-112200000D03*
X14133000Y-112200000D03*
X14400000Y-112200000D03*
X14667000Y-112200000D03*
X14933000Y-112200000D03*
X15200000Y-112200000D03*
X15467000Y-112200000D03*
X15733000Y-112200000D03*
X16000000Y-112200000D03*
X12000000Y-107800000D03*
X12267000Y-107800000D03*
X12533000Y-107800000D03*
X12800000Y-107800000D03*
X13067000Y-107800000D03*
X13333000Y-107800000D03*
X13600000Y-107800000D03*
X13867000Y-107800000D03*
X14133000Y-107800000D03*
X14400000Y-107800000D03*
X14667000Y-107800000D03*
X14933000Y-107800000D03*
X15200000Y-107800000D03*
X15467000Y-107800000D03*
X15733000Y-107800000D03*
X16000000Y-107800000D03*
%TD*%
%TO.C,J_BATTERY*%
X25500000Y-118700000D03*
X32000000Y-118700000D03*
X38500000Y-118700000D03*
X25500000Y-115300000D03*
X32000000Y-115300000D03*
X38500000Y-115300000D03*
%TD*%
%TO.C,U_PMIC*%
X47500000Y-124700000D03*
X47661000Y-124700000D03*
X47823000Y-124700000D03*
X47984000Y-124700000D03*
X48145000Y-124700000D03*
X48306000Y-124700000D03*
X48468000Y-124700000D03*
X48629000Y-124700000D03*
X48790000Y-124700000D03*
X48952000Y-124700000D03*
X49113000Y-124700000D03*
X49274000Y-124700000D03*
X49435000Y-124700000D03*
X49597000Y-124700000D03*
X49758000Y-124700000D03*
X49919000Y-124700000D03*
X50081000Y-124700000D03*
X50242000Y-124700000D03*
X50403000Y-124700000D03*
X50565000Y-124700000D03*
X50726000Y-124700000D03*
X50887000Y-124700000D03*
X51048000Y-124700000D03*
X51210000Y-124700000D03*
X51371000Y-124700000D03*
X51532000Y-124700000D03*
X51694000Y-124700000D03*
X51855000Y-124700000D03*
X52016000Y-124700000D03*
X52177000Y-124700000D03*
X52339000Y-124700000D03*
X52500000Y-124700000D03*
X47500000Y-119300000D03*
X47661000Y-119300000D03*
X47823000Y-119300000D03*
X47984000Y-119300000D03*
X48145000Y-119300000D03*
X48306000Y-119300000D03*
X48468000Y-119300000D03*
X48629000Y-119300000D03*
X48790000Y-119300000D03*
X48952000Y-119300000D03*
X49113000Y-119300000D03*
X49274000Y-119300000D03*
X49435000Y-119300000D03*
X49597000Y-119300000D03*
X49758000Y-119300000D03*
X49919000Y-119300000D03*
X50081000Y-119300000D03*
X50242000Y-119300000D03*
X50403000Y-119300000D03*
X50565000Y-119300000D03*
X50726000Y-119300000D03*
X50887000Y-119300000D03*
X51048000Y-119300000D03*
X51210000Y-119300000D03*
X51371000Y-119300000D03*
X51532000Y-119300000D03*
X51694000Y-119300000D03*
X51855000Y-119300000D03*
X52016000Y-119300000D03*
X52177000Y-119300000D03*
X52339000Y-119300000D03*
X52500000Y-119300000D03*
%TD*%
%TO.C,U_SOC*%
X25500000Y-66700000D03*
X25565000Y-66700000D03*
X25631000Y-66700000D03*
X25696000Y-66700000D03*
X25761000Y-66700000D03*
X25827000Y-66700000D03*
X25892000Y-66700000D03*
X25957000Y-66700000D03*
X26023000Y-66700000D03*
X26088000Y-66700000D03*
X26153000Y-66700000D03*
X26219000Y-66700000D03*
X26284000Y-66700000D03*
X26349000Y-66700000D03*
X26415000Y-66700000D03*
X26480000Y-66700000D03*
X26545000Y-66700000D03*
X26611000Y-66700000D03*
X26676000Y-66700000D03*
X26741000Y-66700000D03*
X26807000Y-66700000D03*
X26872000Y-66700000D03*
X26937000Y-66700000D03*
X27003000Y-66700000D03*
X27068000Y-66700000D03*
X27133000Y-66700000D03*
X27198000Y-66700000D03*
X27264000Y-66700000D03*
X27329000Y-66700000D03*
X27394000Y-66700000D03*
X27460000Y-66700000D03*
X27525000Y-66700000D03*
X27590000Y-66700000D03*
X27656000Y-66700000D03*
X27721000Y-66700000D03*
X27786000Y-66700000D03*
X27852000Y-66700000D03*
X27917000Y-66700000D03*
X27982000Y-66700000D03*
X28048000Y-66700000D03*
X28113000Y-66700000D03*
X28178000Y-66700000D03*
X28244000Y-66700000D03*
X28309000Y-66700000D03*
X28374000Y-66700000D03*
X28440000Y-66700000D03*
X28505000Y-66700000D03*
X28570000Y-66700000D03*
X28636000Y-66700000D03*
X28701000Y-66700000D03*
X28766000Y-66700000D03*
X28832000Y-66700000D03*
X28897000Y-66700000D03*
X28962000Y-66700000D03*
X29028000Y-66700000D03*
X29093000Y-66700000D03*
X29158000Y-66700000D03*
X29224000Y-66700000D03*
X29289000Y-66700000D03*
X29354000Y-66700000D03*
X29420000Y-66700000D03*
X29485000Y-66700000D03*
X29550000Y-66700000D03*
X29616000Y-66700000D03*
X29681000Y-66700000D03*
X29746000Y-66700000D03*
X29812000Y-66700000D03*
X29877000Y-66700000D03*
X29942000Y-66700000D03*
X30008000Y-66700000D03*
X30073000Y-66700000D03*
X30138000Y-66700000D03*
X30204000Y-66700000D03*
X30269000Y-66700000D03*
X30334000Y-66700000D03*
X30399000Y-66700000D03*
X30465000Y-66700000D03*
X30530000Y-66700000D03*
X30595000Y-66700000D03*
X30661000Y-66700000D03*
X30726000Y-66700000D03*
X30791000Y-66700000D03*
X30857000Y-66700000D03*
X30922000Y-66700000D03*
X30987000Y-66700000D03*
X31053000Y-66700000D03*
X31118000Y-66700000D03*
X31183000Y-66700000D03*
X31249000Y-66700000D03*
X31314000Y-66700000D03*
X31379000Y-66700000D03*
X31445000Y-66700000D03*
X31510000Y-66700000D03*
X31575000Y-66700000D03*
X31641000Y-66700000D03*
X31706000Y-66700000D03*
X31771000Y-66700000D03*
X31837000Y-66700000D03*
X31902000Y-66700000D03*
X31967000Y-66700000D03*
X32033000Y-66700000D03*
X32098000Y-66700000D03*
X32163000Y-66700000D03*
X32229000Y-66700000D03*
X32294000Y-66700000D03*
X32359000Y-66700000D03*
X32425000Y-66700000D03*
X32490000Y-66700000D03*
X32555000Y-66700000D03*
X32621000Y-66700000D03*
X32686000Y-66700000D03*
X32751000Y-66700000D03*
X32817000Y-66700000D03*
X32882000Y-66700000D03*
X32947000Y-66700000D03*
X33013000Y-66700000D03*
X33078000Y-66700000D03*
X33143000Y-66700000D03*
X33209000Y-66700000D03*
X33274000Y-66700000D03*
X33339000Y-66700000D03*
X33405000Y-66700000D03*
X33470000Y-66700000D03*
X33535000Y-66700000D03*
X33601000Y-66700000D03*
X33666000Y-66700000D03*
X33731000Y-66700000D03*
X33796000Y-66700000D03*
X33862000Y-66700000D03*
X33927000Y-66700000D03*
X33992000Y-66700000D03*
X34058000Y-66700000D03*
X34123000Y-66700000D03*
X34188000Y-66700000D03*
X34254000Y-66700000D03*
X34319000Y-66700000D03*
X34384000Y-66700000D03*
X34450000Y-66700000D03*
X34515000Y-66700000D03*
X34580000Y-66700000D03*
X34646000Y-66700000D03*
X34711000Y-66700000D03*
X34776000Y-66700000D03*
X34842000Y-66700000D03*
X34907000Y-66700000D03*
X34972000Y-66700000D03*
X35038000Y-66700000D03*
X35103000Y-66700000D03*
X35168000Y-66700000D03*
X35234000Y-66700000D03*
X35299000Y-66700000D03*
X35364000Y-66700000D03*
X35430000Y-66700000D03*
X35495000Y-66700000D03*
X35560000Y-66700000D03*
X35626000Y-66700000D03*
X35691000Y-66700000D03*
X35756000Y-66700000D03*
X35822000Y-66700000D03*
X35887000Y-66700000D03*
X35952000Y-66700000D03*
X36018000Y-66700000D03*
X36083000Y-66700000D03*
X36148000Y-66700000D03*
X36214000Y-66700000D03*
X36279000Y-66700000D03*
X36344000Y-66700000D03*
X36410000Y-66700000D03*
X36475000Y-66700000D03*
X36540000Y-66700000D03*
X36606000Y-66700000D03*
X36671000Y-66700000D03*
X36736000Y-66700000D03*
X36802000Y-66700000D03*
X36867000Y-66700000D03*
X36932000Y-66700000D03*
X36997000Y-66700000D03*
X37063000Y-66700000D03*
X37128000Y-66700000D03*
X37193000Y-66700000D03*
X37259000Y-66700000D03*
X37324000Y-66700000D03*
X37389000Y-66700000D03*
X37455000Y-66700000D03*
X37520000Y-66700000D03*
X37585000Y-66700000D03*
X37651000Y-66700000D03*
X37716000Y-66700000D03*
X37781000Y-66700000D03*
X37847000Y-66700000D03*
X37912000Y-66700000D03*
X37977000Y-66700000D03*
X38043000Y-66700000D03*
X38108000Y-66700000D03*
X38173000Y-66700000D03*
X38239000Y-66700000D03*
X38304000Y-66700000D03*
X38369000Y-66700000D03*
X38435000Y-66700000D03*
X38500000Y-66700000D03*
X25500000Y-53300000D03*
X25565000Y-53300000D03*
X25631000Y-53300000D03*
X25696000Y-53300000D03*
X25761000Y-53300000D03*
X25827000Y-53300000D03*
X25892000Y-53300000D03*
X25957000Y-53300000D03*
X26023000Y-53300000D03*
X26088000Y-53300000D03*
X26153000Y-53300000D03*
X26219000Y-53300000D03*
X26284000Y-53300000D03*
X26349000Y-53300000D03*
X26415000Y-53300000D03*
X26480000Y-53300000D03*
X26545000Y-53300000D03*
X26611000Y-53300000D03*
X26676000Y-53300000D03*
X26741000Y-53300000D03*
X26807000Y-53300000D03*
X26872000Y-53300000D03*
X26937000Y-53300000D03*
X27003000Y-53300000D03*
X27068000Y-53300000D03*
X27133000Y-53300000D03*
X27198000Y-53300000D03*
X27264000Y-53300000D03*
X27329000Y-53300000D03*
X27394000Y-53300000D03*
X27460000Y-53300000D03*
X27525000Y-53300000D03*
X27590000Y-53300000D03*
X27656000Y-53300000D03*
X27721000Y-53300000D03*
X27786000Y-53300000D03*
X27852000Y-53300000D03*
X27917000Y-53300000D03*
X27982000Y-53300000D03*
X28048000Y-53300000D03*
X28113000Y-53300000D03*
X28178000Y-53300000D03*
X28244000Y-53300000D03*
X28309000Y-53300000D03*
X28374000Y-53300000D03*
X28440000Y-53300000D03*
X28505000Y-53300000D03*
X28570000Y-53300000D03*
X28636000Y-53300000D03*
X28701000Y-53300000D03*
X28766000Y-53300000D03*
X28832000Y-53300000D03*
X28897000Y-53300000D03*
X28962000Y-53300000D03*
X29028000Y-53300000D03*
X29093000Y-53300000D03*
X29158000Y-53300000D03*
X29224000Y-53300000D03*
X29289000Y-53300000D03*
X29354000Y-53300000D03*
X29420000Y-53300000D03*
X29485000Y-53300000D03*
X29550000Y-53300000D03*
X29616000Y-53300000D03*
X29681000Y-53300000D03*
X29746000Y-53300000D03*
X29812000Y-53300000D03*
X29877000Y-53300000D03*
X29942000Y-53300000D03*
X30008000Y-53300000D03*
X30073000Y-53300000D03*
X30138000Y-53300000D03*
X30204000Y-53300000D03*
X30269000Y-53300000D03*
X30334000Y-53300000D03*
X30399000Y-53300000D03*
X30465000Y-53300000D03*
X30530000Y-53300000D03*
X30595000Y-53300000D03*
X30661000Y-53300000D03*
X30726000Y-53300000D03*
X30791000Y-53300000D03*
X30857000Y-53300000D03*
X30922000Y-53300000D03*
X30987000Y-53300000D03*
X31053000Y-53300000D03*
X31118000Y-53300000D03*
X31183000Y-53300000D03*
X31249000Y-53300000D03*
X31314000Y-53300000D03*
X31379000Y-53300000D03*
X31445000Y-53300000D03*
X31510000Y-53300000D03*
X31575000Y-53300000D03*
X31641000Y-53300000D03*
X31706000Y-53300000D03*
X31771000Y-53300000D03*
X31837000Y-53300000D03*
X31902000Y-53300000D03*
X31967000Y-53300000D03*
X32033000Y-53300000D03*
X32098000Y-53300000D03*
X32163000Y-53300000D03*
X32229000Y-53300000D03*
X32294000Y-53300000D03*
X32359000Y-53300000D03*
X32425000Y-53300000D03*
X32490000Y-53300000D03*
X32555000Y-53300000D03*
X32621000Y-53300000D03*
X32686000Y-53300000D03*
X32751000Y-53300000D03*
X32817000Y-53300000D03*
X32882000Y-53300000D03*
X32947000Y-53300000D03*
X33013000Y-53300000D03*
X33078000Y-53300000D03*
X33143000Y-53300000D03*
X33209000Y-53300000D03*
X33274000Y-53300000D03*
X33339000Y-53300000D03*
X33405000Y-53300000D03*
X33470000Y-53300000D03*
X33535000Y-53300000D03*
X33601000Y-53300000D03*
X33666000Y-53300000D03*
X33731000Y-53300000D03*
X33796000Y-53300000D03*
X33862000Y-53300000D03*
X33927000Y-53300000D03*
X33992000Y-53300000D03*
X34058000Y-53300000D03*
X34123000Y-53300000D03*
X34188000Y-53300000D03*
X34254000Y-53300000D03*
X34319000Y-53300000D03*
X34384000Y-53300000D03*
X34450000Y-53300000D03*
X34515000Y-53300000D03*
X34580000Y-53300000D03*
X34646000Y-53300000D03*
X34711000Y-53300000D03*
X34776000Y-53300000D03*
X34842000Y-53300000D03*
X34907000Y-53300000D03*
X34972000Y-53300000D03*
X35038000Y-53300000D03*
X35103000Y-53300000D03*
X35168000Y-53300000D03*
X35234000Y-53300000D03*
X35299000Y-53300000D03*
X35364000Y-53300000D03*
X35430000Y-53300000D03*
X35495000Y-53300000D03*
X35560000Y-53300000D03*
X35626000Y-53300000D03*
X35691000Y-53300000D03*
X35756000Y-53300000D03*
X35822000Y-53300000D03*
X35887000Y-53300000D03*
X35952000Y-53300000D03*
X36018000Y-53300000D03*
X36083000Y-53300000D03*
X36148000Y-53300000D03*
X36214000Y-53300000D03*
X36279000Y-53300000D03*
X36344000Y-53300000D03*
X36410000Y-53300000D03*
X36475000Y-53300000D03*
X36540000Y-53300000D03*
X36606000Y-53300000D03*
X36671000Y-53300000D03*
X36736000Y-53300000D03*
X36802000Y-53300000D03*
X36867000Y-53300000D03*
X36932000Y-53300000D03*
X36997000Y-53300000D03*
X37063000Y-53300000D03*
X37128000Y-53300000D03*
X37193000Y-53300000D03*
X37259000Y-53300000D03*
X37324000Y-53300000D03*
X37389000Y-53300000D03*
X37455000Y-53300000D03*
X37520000Y-53300000D03*
X37585000Y-53300000D03*
X37651000Y-53300000D03*
X37716000Y-53300000D03*
X37781000Y-53300000D03*
X37847000Y-53300000D03*
X37912000Y-53300000D03*
X37977000Y-53300000D03*
X38043000Y-53300000D03*
X38108000Y-53300000D03*
X38173000Y-53300000D03*
X38239000Y-53300000D03*
X38304000Y-53300000D03*
X38369000Y-53300000D03*
X38435000Y-53300000D03*
X38500000Y-53300000D03*
%TD*%
%TO.C,U_LPDDR_UFS*%
X27000000Y-82700000D03*
X27101000Y-82700000D03*
X27202000Y-82700000D03*
X27303000Y-82700000D03*
X27404000Y-82700000D03*
X27505000Y-82700000D03*
X27606000Y-82700000D03*
X27707000Y-82700000D03*
X27808000Y-82700000D03*
X27909000Y-82700000D03*
X28010000Y-82700000D03*
X28111000Y-82700000D03*
X28212000Y-82700000D03*
X28313000Y-82700000D03*
X28414000Y-82700000D03*
X28515000Y-82700000D03*
X28616000Y-82700000D03*
X28717000Y-82700000D03*
X28818000Y-82700000D03*
X28919000Y-82700000D03*
X29020000Y-82700000D03*
X29121000Y-82700000D03*
X29222000Y-82700000D03*
X29323000Y-82700000D03*
X29424000Y-82700000D03*
X29525000Y-82700000D03*
X29626000Y-82700000D03*
X29727000Y-82700000D03*
X29828000Y-82700000D03*
X29929000Y-82700000D03*
X30030000Y-82700000D03*
X30131000Y-82700000D03*
X30232000Y-82700000D03*
X30333000Y-82700000D03*
X30434000Y-82700000D03*
X30535000Y-82700000D03*
X30636000Y-82700000D03*
X30737000Y-82700000D03*
X30838000Y-82700000D03*
X30939000Y-82700000D03*
X31040000Y-82700000D03*
X31141000Y-82700000D03*
X31242000Y-82700000D03*
X31343000Y-82700000D03*
X31444000Y-82700000D03*
X31545000Y-82700000D03*
X31646000Y-82700000D03*
X31747000Y-82700000D03*
X31848000Y-82700000D03*
X31949000Y-82700000D03*
X32051000Y-82700000D03*
X32152000Y-82700000D03*
X32253000Y-82700000D03*
X32354000Y-82700000D03*
X32455000Y-82700000D03*
X32556000Y-82700000D03*
X32657000Y-82700000D03*
X32758000Y-82700000D03*
X32859000Y-82700000D03*
X32960000Y-82700000D03*
X33061000Y-82700000D03*
X33162000Y-82700000D03*
X33263000Y-82700000D03*
X33364000Y-82700000D03*
X33465000Y-82700000D03*
X33566000Y-82700000D03*
X33667000Y-82700000D03*
X33768000Y-82700000D03*
X33869000Y-82700000D03*
X33970000Y-82700000D03*
X34071000Y-82700000D03*
X34172000Y-82700000D03*
X34273000Y-82700000D03*
X34374000Y-82700000D03*
X34475000Y-82700000D03*
X34576000Y-82700000D03*
X34677000Y-82700000D03*
X34778000Y-82700000D03*
X34879000Y-82700000D03*
X34980000Y-82700000D03*
X35081000Y-82700000D03*
X35182000Y-82700000D03*
X35283000Y-82700000D03*
X35384000Y-82700000D03*
X35485000Y-82700000D03*
X35586000Y-82700000D03*
X35687000Y-82700000D03*
X35788000Y-82700000D03*
X35889000Y-82700000D03*
X35990000Y-82700000D03*
X36091000Y-82700000D03*
X36192000Y-82700000D03*
X36293000Y-82700000D03*
X36394000Y-82700000D03*
X36495000Y-82700000D03*
X36596000Y-82700000D03*
X36697000Y-82700000D03*
X36798000Y-82700000D03*
X36899000Y-82700000D03*
X37000000Y-82700000D03*
X27000000Y-73300000D03*
X27101000Y-73300000D03*
X27202000Y-73300000D03*
X27303000Y-73300000D03*
X27404000Y-73300000D03*
X27505000Y-73300000D03*
X27606000Y-73300000D03*
X27707000Y-73300000D03*
X27808000Y-73300000D03*
X27909000Y-73300000D03*
X28010000Y-73300000D03*
X28111000Y-73300000D03*
X28212000Y-73300000D03*
X28313000Y-73300000D03*
X28414000Y-73300000D03*
X28515000Y-73300000D03*
X28616000Y-73300000D03*
X28717000Y-73300000D03*
X28818000Y-73300000D03*
X28919000Y-73300000D03*
X29020000Y-73300000D03*
X29121000Y-73300000D03*
X29222000Y-73300000D03*
X29323000Y-73300000D03*
X29424000Y-73300000D03*
X29525000Y-73300000D03*
X29626000Y-73300000D03*
X29727000Y-73300000D03*
X29828000Y-73300000D03*
X29929000Y-73300000D03*
X30030000Y-73300000D03*
X30131000Y-73300000D03*
X30232000Y-73300000D03*
X30333000Y-73300000D03*
X30434000Y-73300000D03*
X30535000Y-73300000D03*
X30636000Y-73300000D03*
X30737000Y-73300000D03*
X30838000Y-73300000D03*
X30939000Y-73300000D03*
X31040000Y-73300000D03*
X31141000Y-73300000D03*
X31242000Y-73300000D03*
X31343000Y-73300000D03*
X31444000Y-73300000D03*
X31545000Y-73300000D03*
X31646000Y-73300000D03*
X31747000Y-73300000D03*
X31848000Y-73300000D03*
X31949000Y-73300000D03*
X32051000Y-73300000D03*
X32152000Y-73300000D03*
X32253000Y-73300000D03*
X32354000Y-73300000D03*
X32455000Y-73300000D03*
X32556000Y-73300000D03*
X32657000Y-73300000D03*
X32758000Y-73300000D03*
X32859000Y-73300000D03*
X32960000Y-73300000D03*
X33061000Y-73300000D03*
X33162000Y-73300000D03*
X33263000Y-73300000D03*
X33364000Y-73300000D03*
X33465000Y-73300000D03*
X33566000Y-73300000D03*
X33667000Y-73300000D03*
X33768000Y-73300000D03*
X33869000Y-73300000D03*
X33970000Y-73300000D03*
X34071000Y-73300000D03*
X34172000Y-73300000D03*
X34273000Y-73300000D03*
X34374000Y-73300000D03*
X34475000Y-73300000D03*
X34576000Y-73300000D03*
X34677000Y-73300000D03*
X34778000Y-73300000D03*
X34879000Y-73300000D03*
X34980000Y-73300000D03*
X35081000Y-73300000D03*
X35182000Y-73300000D03*
X35283000Y-73300000D03*
X35384000Y-73300000D03*
X35485000Y-73300000D03*
X35586000Y-73300000D03*
X35687000Y-73300000D03*
X35788000Y-73300000D03*
X35889000Y-73300000D03*
X35990000Y-73300000D03*
X36091000Y-73300000D03*
X36192000Y-73300000D03*
X36293000Y-73300000D03*
X36394000Y-73300000D03*
X36495000Y-73300000D03*
X36596000Y-73300000D03*
X36697000Y-73300000D03*
X36798000Y-73300000D03*
X36899000Y-73300000D03*
X37000000Y-73300000D03*
%TD*%
%TO.C,J_DISPLAY_TOUCH*%
X43500000Y-40700000D03*
X44395000Y-40700000D03*
X45289000Y-40700000D03*
X46184000Y-40700000D03*
X47079000Y-40700000D03*
X47974000Y-40700000D03*
X48868000Y-40700000D03*
X49763000Y-40700000D03*
X50658000Y-40700000D03*
X51553000Y-40700000D03*
X52447000Y-40700000D03*
X53342000Y-40700000D03*
X54237000Y-40700000D03*
X55132000Y-40700000D03*
X56026000Y-40700000D03*
X56921000Y-40700000D03*
X57816000Y-40700000D03*
X58711000Y-40700000D03*
X59605000Y-40700000D03*
X60500000Y-40700000D03*
X43500000Y-36300000D03*
X44395000Y-36300000D03*
X45289000Y-36300000D03*
X46184000Y-36300000D03*
X47079000Y-36300000D03*
X47974000Y-36300000D03*
X48868000Y-36300000D03*
X49763000Y-36300000D03*
X50658000Y-36300000D03*
X51553000Y-36300000D03*
X52447000Y-36300000D03*
X53342000Y-36300000D03*
X54237000Y-36300000D03*
X55132000Y-36300000D03*
X56026000Y-36300000D03*
X56921000Y-36300000D03*
X57816000Y-36300000D03*
X58711000Y-36300000D03*
X59605000Y-36300000D03*
X60500000Y-36300000D03*
%TD*%
%TO.C,J_CAM0*%
X47500000Y-21700000D03*
X48682000Y-21700000D03*
X49864000Y-21700000D03*
X51045000Y-21700000D03*
X52227000Y-21700000D03*
X53409000Y-21700000D03*
X54591000Y-21700000D03*
X55773000Y-21700000D03*
X56955000Y-21700000D03*
X58136000Y-21700000D03*
X59318000Y-21700000D03*
X60500000Y-21700000D03*
X47500000Y-18300000D03*
X48682000Y-18300000D03*
X49864000Y-18300000D03*
X51045000Y-18300000D03*
X52227000Y-18300000D03*
X53409000Y-18300000D03*
X54591000Y-18300000D03*
X55773000Y-18300000D03*
X56955000Y-18300000D03*
X58136000Y-18300000D03*
X59318000Y-18300000D03*
X60500000Y-18300000D03*
%TD*%
%TO.C,J_CAM1*%
X7500000Y-11700000D03*
X8600000Y-11700000D03*
X9700000Y-11700000D03*
X10800000Y-11700000D03*
X11900000Y-11700000D03*
X13000000Y-11700000D03*
X14100000Y-11700000D03*
X15200000Y-11700000D03*
X16300000Y-11700000D03*
X17400000Y-11700000D03*
X18500000Y-11700000D03*
X7500000Y-8300000D03*
X8600000Y-8300000D03*
X9700000Y-8300000D03*
X10800000Y-8300000D03*
X11900000Y-8300000D03*
X13000000Y-8300000D03*
X14100000Y-8300000D03*
X15200000Y-8300000D03*
X16300000Y-8300000D03*
X17400000Y-8300000D03*
X18500000Y-8300000D03*
%TD*%
%TO.C,U_CELL*%
X13500000Y-100700000D03*
X13833000Y-100700000D03*
X14167000Y-100700000D03*
X14500000Y-100700000D03*
X14833000Y-100700000D03*
X15167000Y-100700000D03*
X15500000Y-100700000D03*
X15833000Y-100700000D03*
X16167000Y-100700000D03*
X16500000Y-100700000D03*
X16833000Y-100700000D03*
X17167000Y-100700000D03*
X17500000Y-100700000D03*
X17833000Y-100700000D03*
X18167000Y-100700000D03*
X18500000Y-100700000D03*
X18833000Y-100700000D03*
X19167000Y-100700000D03*
X19500000Y-100700000D03*
X19833000Y-100700000D03*
X20167000Y-100700000D03*
X20500000Y-100700000D03*
X20833000Y-100700000D03*
X21167000Y-100700000D03*
X21500000Y-100700000D03*
X21833000Y-100700000D03*
X22167000Y-100700000D03*
X22500000Y-100700000D03*
X22833000Y-100700000D03*
X23167000Y-100700000D03*
X23500000Y-100700000D03*
X23833000Y-100700000D03*
X24167000Y-100700000D03*
X24500000Y-100700000D03*
X24833000Y-100700000D03*
X25167000Y-100700000D03*
X25500000Y-100700000D03*
X25833000Y-100700000D03*
X26167000Y-100700000D03*
X26500000Y-100700000D03*
X13500000Y-89300000D03*
X13833000Y-89300000D03*
X14167000Y-89300000D03*
X14500000Y-89300000D03*
X14833000Y-89300000D03*
X15167000Y-89300000D03*
X15500000Y-89300000D03*
X15833000Y-89300000D03*
X16167000Y-89300000D03*
X16500000Y-89300000D03*
X16833000Y-89300000D03*
X17167000Y-89300000D03*
X17500000Y-89300000D03*
X17833000Y-89300000D03*
X18167000Y-89300000D03*
X18500000Y-89300000D03*
X18833000Y-89300000D03*
X19167000Y-89300000D03*
X19500000Y-89300000D03*
X19833000Y-89300000D03*
X20167000Y-89300000D03*
X20500000Y-89300000D03*
X20833000Y-89300000D03*
X21167000Y-89300000D03*
X21500000Y-89300000D03*
X21833000Y-89300000D03*
X22167000Y-89300000D03*
X22500000Y-89300000D03*
X22833000Y-89300000D03*
X23167000Y-89300000D03*
X23500000Y-89300000D03*
X23833000Y-89300000D03*
X24167000Y-89300000D03*
X24500000Y-89300000D03*
X24833000Y-89300000D03*
X25167000Y-89300000D03*
X25500000Y-89300000D03*
X25833000Y-89300000D03*
X26167000Y-89300000D03*
X26500000Y-89300000D03*
%TD*%
%TO.C,U_WIFI_BT*%
X4250000Y-27400000D03*
X4647000Y-27400000D03*
X5043000Y-27400000D03*
X5440000Y-27400000D03*
X5836000Y-27400000D03*
X6233000Y-27400000D03*
X6629000Y-27400000D03*
X7026000Y-27400000D03*
X7422000Y-27400000D03*
X7819000Y-27400000D03*
X8216000Y-27400000D03*
X8612000Y-27400000D03*
X9009000Y-27400000D03*
X9405000Y-27400000D03*
X9802000Y-27400000D03*
X10198000Y-27400000D03*
X10595000Y-27400000D03*
X10991000Y-27400000D03*
X11388000Y-27400000D03*
X11784000Y-27400000D03*
X12181000Y-27400000D03*
X12578000Y-27400000D03*
X12974000Y-27400000D03*
X13371000Y-27400000D03*
X13767000Y-27400000D03*
X14164000Y-27400000D03*
X14560000Y-27400000D03*
X14957000Y-27400000D03*
X15353000Y-27400000D03*
X15750000Y-27400000D03*
X4250000Y-18600000D03*
X4647000Y-18600000D03*
X5043000Y-18600000D03*
X5440000Y-18600000D03*
X5836000Y-18600000D03*
X6233000Y-18600000D03*
X6629000Y-18600000D03*
X7026000Y-18600000D03*
X7422000Y-18600000D03*
X7819000Y-18600000D03*
X8216000Y-18600000D03*
X8612000Y-18600000D03*
X9009000Y-18600000D03*
X9405000Y-18600000D03*
X9802000Y-18600000D03*
X10198000Y-18600000D03*
X10595000Y-18600000D03*
X10991000Y-18600000D03*
X11388000Y-18600000D03*
X11784000Y-18600000D03*
X12181000Y-18600000D03*
X12578000Y-18600000D03*
X12974000Y-18600000D03*
X13371000Y-18600000D03*
X13767000Y-18600000D03*
X14164000Y-18600000D03*
X14560000Y-18600000D03*
X14957000Y-18600000D03*
X15353000Y-18600000D03*
X15750000Y-18600000D03*
%TD*%
%TO.C,J_USIM*%
X57500000Y-65700000D03*
X60000000Y-65700000D03*
X62500000Y-65700000D03*
X57500000Y-54300000D03*
X60000000Y-54300000D03*
X62500000Y-54300000D03*
%TD*%
%TO.C,U_CODEC*%
X26500000Y-103700000D03*
X26700000Y-103700000D03*
X26900000Y-103700000D03*
X27100000Y-103700000D03*
X27300000Y-103700000D03*
X27500000Y-103700000D03*
X27700000Y-103700000D03*
X27900000Y-103700000D03*
X28100000Y-103700000D03*
X28300000Y-103700000D03*
X28500000Y-103700000D03*
X28700000Y-103700000D03*
X28900000Y-103700000D03*
X29100000Y-103700000D03*
X29300000Y-103700000D03*
X29500000Y-103700000D03*
X26500000Y-100300000D03*
X26700000Y-100300000D03*
X26900000Y-100300000D03*
X27100000Y-100300000D03*
X27300000Y-100300000D03*
X27500000Y-100300000D03*
X27700000Y-100300000D03*
X27900000Y-100300000D03*
X28100000Y-100300000D03*
X28300000Y-100300000D03*
X28500000Y-100300000D03*
X28700000Y-100300000D03*
X28900000Y-100300000D03*
X29100000Y-100300000D03*
X29300000Y-100300000D03*
X29500000Y-100300000D03*
%TD*%
%TO.C,U_SPK_AMP*%
X43500000Y-111700000D03*
X43833000Y-111700000D03*
X44167000Y-111700000D03*
X44500000Y-111700000D03*
X44833000Y-111700000D03*
X45167000Y-111700000D03*
X45500000Y-111700000D03*
X45833000Y-111700000D03*
X46167000Y-111700000D03*
X46500000Y-111700000D03*
X43500000Y-108300000D03*
X43833000Y-108300000D03*
X44167000Y-108300000D03*
X44500000Y-108300000D03*
X44833000Y-108300000D03*
X45167000Y-108300000D03*
X45500000Y-108300000D03*
X45833000Y-108300000D03*
X46167000Y-108300000D03*
X46500000Y-108300000D03*
%TD*%
%TO.C,SW_POWER_VOL*%
X18500000Y-28700000D03*
X29500000Y-28700000D03*
X18500000Y-26300000D03*
X29500000Y-26300000D03*
X40500000Y-26300000D03*
%TD*%
%TO.C,U_HAPTIC*%
X54500000Y-112700000D03*
X56167000Y-112700000D03*
X57833000Y-112700000D03*
X59500000Y-112700000D03*
X54500000Y-101300000D03*
X56167000Y-101300000D03*
X57833000Y-101300000D03*
X59500000Y-101300000D03*
%TD*%
%TO.C,J_B2B_TOP*%
X17500000Y-46200000D03*
X18244000Y-46200000D03*
X18987000Y-46200000D03*
X19731000Y-46200000D03*
X20474000Y-46200000D03*
X21218000Y-46200000D03*
X21962000Y-46200000D03*
X22705000Y-46200000D03*
X23449000Y-46200000D03*
X24192000Y-46200000D03*
X24936000Y-46200000D03*
X25679000Y-46200000D03*
X26423000Y-46200000D03*
X27167000Y-46200000D03*
X27910000Y-46200000D03*
X28654000Y-46200000D03*
X29397000Y-46200000D03*
X30141000Y-46200000D03*
X30885000Y-46200000D03*
X31628000Y-46200000D03*
X32372000Y-46200000D03*
X33115000Y-46200000D03*
X33859000Y-46200000D03*
X34603000Y-46200000D03*
X35346000Y-46200000D03*
X36090000Y-46200000D03*
X36833000Y-46200000D03*
X37577000Y-46200000D03*
X38321000Y-46200000D03*
X39064000Y-46200000D03*
X39808000Y-46200000D03*
X40551000Y-46200000D03*
X41295000Y-46200000D03*
X42038000Y-46200000D03*
X42782000Y-46200000D03*
X43526000Y-46200000D03*
X44269000Y-46200000D03*
X45013000Y-46200000D03*
X45756000Y-46200000D03*
X46500000Y-46200000D03*
X17500000Y-43800000D03*
X18244000Y-43800000D03*
X18987000Y-43800000D03*
X19731000Y-43800000D03*
X20474000Y-43800000D03*
X21218000Y-43800000D03*
X21962000Y-43800000D03*
X22705000Y-43800000D03*
X23449000Y-43800000D03*
X24192000Y-43800000D03*
X24936000Y-43800000D03*
X25679000Y-43800000D03*
X26423000Y-43800000D03*
X27167000Y-43800000D03*
X27910000Y-43800000D03*
X28654000Y-43800000D03*
X29397000Y-43800000D03*
X30141000Y-43800000D03*
X30885000Y-43800000D03*
X31628000Y-43800000D03*
X32372000Y-43800000D03*
X33115000Y-43800000D03*
X33859000Y-43800000D03*
X34603000Y-43800000D03*
X35346000Y-43800000D03*
X36090000Y-43800000D03*
X36833000Y-43800000D03*
X37577000Y-43800000D03*
X38321000Y-43800000D03*
X39064000Y-43800000D03*
X39808000Y-43800000D03*
X40551000Y-43800000D03*
X41295000Y-43800000D03*
X42038000Y-43800000D03*
X42782000Y-43800000D03*
X43526000Y-43800000D03*
X44269000Y-43800000D03*
X45013000Y-43800000D03*
X45756000Y-43800000D03*
X46500000Y-43800000D03*
%TD*%
%TO.C,J_B2B_BOT*%
X17500000Y-116200000D03*
X18244000Y-116200000D03*
X18987000Y-116200000D03*
X19731000Y-116200000D03*
X20474000Y-116200000D03*
X21218000Y-116200000D03*
X21962000Y-116200000D03*
X22705000Y-116200000D03*
X23449000Y-116200000D03*
X24192000Y-116200000D03*
X24936000Y-116200000D03*
X25679000Y-116200000D03*
X26423000Y-116200000D03*
X27167000Y-116200000D03*
X27910000Y-116200000D03*
X28654000Y-116200000D03*
X29397000Y-116200000D03*
X30141000Y-116200000D03*
X30885000Y-116200000D03*
X31628000Y-116200000D03*
X32372000Y-116200000D03*
X33115000Y-116200000D03*
X33859000Y-116200000D03*
X34603000Y-116200000D03*
X35346000Y-116200000D03*
X36090000Y-116200000D03*
X36833000Y-116200000D03*
X37577000Y-116200000D03*
X38321000Y-116200000D03*
X39064000Y-116200000D03*
X39808000Y-116200000D03*
X40551000Y-116200000D03*
X41295000Y-116200000D03*
X42038000Y-116200000D03*
X42782000Y-116200000D03*
X43526000Y-116200000D03*
X44269000Y-116200000D03*
X45013000Y-116200000D03*
X45756000Y-116200000D03*
X46500000Y-116200000D03*
X17500000Y-113800000D03*
X18244000Y-113800000D03*
X18987000Y-113800000D03*
X19731000Y-113800000D03*
X20474000Y-113800000D03*
X21218000Y-113800000D03*
X21962000Y-113800000D03*
X22705000Y-113800000D03*
X23449000Y-113800000D03*
X24192000Y-113800000D03*
X24936000Y-113800000D03*
X25679000Y-113800000D03*
X26423000Y-113800000D03*
X27167000Y-113800000D03*
X27910000Y-113800000D03*
X28654000Y-113800000D03*
X29397000Y-113800000D03*
X30141000Y-113800000D03*
X30885000Y-113800000D03*
X31628000Y-113800000D03*
X32372000Y-113800000D03*
X33115000Y-113800000D03*
X33859000Y-113800000D03*
X34603000Y-113800000D03*
X35346000Y-113800000D03*
X36090000Y-113800000D03*
X36833000Y-113800000D03*
X37577000Y-113800000D03*
X38321000Y-113800000D03*
X39064000Y-113800000D03*
X39808000Y-113800000D03*
X40551000Y-113800000D03*
X41295000Y-113800000D03*
X42038000Y-113800000D03*
X42782000Y-113800000D03*
X43526000Y-113800000D03*
X44269000Y-113800000D03*
X45013000Y-113800000D03*
X45756000Y-113800000D03*
X46500000Y-113800000D03*
%TD*%
D11*
%TO.C,TP_VBUS*%
X42000000Y-124000000D03*
%TD*%
%TO.C,TP_SYS*%
X20000000Y-110000000D03*
%TD*%
%TO.C,TP_VBAT*%
X42000000Y-117000000D03*
%TD*%
%TO.C,TP_3V3*%
X55000000Y-122000000D03*
%TD*%
%TO.C,TP_1V8*%
X45000000Y-122000000D03*
%TD*%
%TO.C,TP_1V1*%
X50000000Y-117000000D03*
%TD*%
%TO.C,TP_0V8*%
X55000000Y-117000000D03*
%TD*%
%TO.C,TP_AON*%
X45000000Y-117000000D03*
%TD*%
%TO.C,TP_SCL*%
X40000000Y-110000000D03*
%TD*%
%TO.C,TP_SDA*%
X40000000Y-113000000D03*
%TD*%
M02*
