M48
; DRILL file {KiCad 9.0.9-9.0.9~ubuntu24.04.1} date 2026-05-20T23:55:20-0700
; FORMAT={-:-/ absolute / metric / decimal}
; #@! TF.CreationDate,2026-05-20T23:55:20-07:00
; #@! TF.GenerationSoftware,Kicad,Pcbnew,9.0.9-9.0.9~ubuntu24.04.1
; #@! TF.FileFunction,Plated,1,10,PTH
FMAT,2
METRIC
; #@! TA.AperFunction,Plated,PTH,ViaDrill
T1C0.200
%
G90
G05
T1
X2.0Y-2.0
X2.0Y-10.0
X2.0Y-18.0
X2.0Y-26.0
X2.0Y-122.0
X2.0Y-130.0
X10.0Y-2.0
X10.0Y-10.0
X10.0Y-18.0
X10.0Y-26.0
X10.0Y-122.0
X10.0Y-130.0
X18.0Y-2.0
X18.0Y-10.0
X18.0Y-18.0
X18.0Y-26.0
X18.0Y-122.0
X18.0Y-130.0
X26.0Y-2.0
X26.0Y-10.0
X26.0Y-18.0
X26.0Y-26.0
X26.0Y-122.0
X26.0Y-130.0
X34.0Y-2.0
X34.0Y-10.0
X34.0Y-18.0
X34.0Y-26.0
X34.0Y-122.0
X34.0Y-130.0
X42.0Y-2.0
X42.0Y-10.0
X42.0Y-18.0
X42.0Y-26.0
X42.0Y-122.0
X42.0Y-130.0
X50.0Y-2.0
X50.0Y-10.0
X50.0Y-18.0
X50.0Y-26.0
X50.0Y-122.0
X50.0Y-130.0
X58.0Y-2.0
X58.0Y-10.0
X58.0Y-18.0
X58.0Y-26.0
X58.0Y-122.0
X58.0Y-130.0
M30
