<svg xmlns="http://www.w3.org/2000/svg" viewBox="0 0 512 512" role="img" aria-labelledby="title">
  <title id="title">ElizaOS face mark</title>
  <rect width="512" height="512" rx="0" fill="#0057ff"/>
  <path fill="#fff" d="M315 36c-16 49-47 84-93 105 39 0 77-13 112-39 19 51 14 98-14 141 33-23 55-56 67-99 24 55 23 107-4 156 42-27 67-68 77-123 19 42 25 83 17 123-13 69-53 119-121 151-54 25-109 22-165-9l-73-41c-15-9-24-23-25-41l-7-141c-1-19 8-32 27-39l73-26c25-9 51-12 78-8 20 3 38 9 56 18-8-28-28-49-61-63 40-8 76-30 108-65z"/>
  <path fill="#0057ff" d="M202 250c28-16 57-18 88-7 14 5 28 4 41-4-12 24-33 35-62 34-26-1-49-9-67-23zM150 237c-19 6-32 22-39 47 23-4 39-17 47-39 2-5-1-10-8-8zM356 280c-9-5-20-4-31 3 10 7 21 9 33 4 5-2 4-5-2-7zM281 338c24 6 48 8 74 5-9 17-24 28-43 34-17-8-28-21-31-39z"/>
  <path fill="#0057ff" fill-rule="evenodd" d="M188 198c35-9 70-10 105-2 16 4 28 15 34 32l-17 7c-4-11-12-18-23-20-32-7-64-6-96 2-12 3-22 11-28 22l-17-8c8-17 22-28 42-33z" clip-rule="evenodd"/>
  <path fill="#fff" d="M135 171c-34 6-58 31-72 75-7 23-6 46 4 70 9 23 24 38 45 46 8-29 11-61 8-96-2-25 3-47 15-66 5-8 5-18 0-29z"/>
  <path fill="#0057ff" d="M92 261c7-18 18-30 34-36-10 25-11 51-3 78-20-5-30-19-31-42z"/>
</svg>
