<svg xmlns="http://www.w3.org/2000/svg" viewBox="0 0 512 512" role="img" aria-labelledby="title">
  <title id="title">ElizaOS female face mark</title>
  <rect width="512" height="512" fill="#0057ff"/>
  <path fill="#fff" d="M315 30c-8 48-30 84-67 108 32-2 61-13 88-32 21 43 22 87 3 131 26-18 45-44 57-78 19 48 18 94-4 138 33-24 54-57 64-99 22 61 15 117-22 168-38 52-91 78-159 78-32 0-62-7-91-22l-52-27c-16-8-26-24-27-42l-5-86c-2-33 7-63 27-90 22-30 51-50 87-60 35-10 69-7 102 9-8-31-28-54-60-69 24-2 45-11 59-27Z"/>
  <path fill="#fff" d="M119 198c-36 4-62 29-78 75-8 23-8 46 1 69 9 24 25 40 48 48 9-31 12-63 8-97-3-31 4-59 21-84 3-4 3-8 0-11Z"/>
  <path fill="#0057ff" d="M78 286c8-18 20-30 38-36-10 25-11 52-2 80-22-6-34-20-36-44Z"/>
  <path fill="#0057ff" d="M182 203c33-13 66-15 100-5 22 7 38 21 48 42l-21 8c-7-14-19-24-35-29-28-8-56-6-84 6-16 7-28 18-36 34l-20-10c10-21 26-36 48-46Z"/>
  <circle cx="218" cy="272" r="40" fill="none" stroke="#0057ff" stroke-width="18"/>
  <circle cx="330" cy="272" r="40" fill="none" stroke="#0057ff" stroke-width="18"/>
  <path fill="none" stroke="#0057ff" stroke-linecap="round" stroke-width="16" d="M258 271h32"/>
  <path fill="#0057ff" d="M205 264c15-12 31-12 48 0-12 16-28 21-48 16v-16ZM318 264c15-12 31-12 48 0-12 16-28 21-48 16v-16ZM314 337c24 6 49 8 76 5-9 19-24 31-45 36-17-9-28-23-31-41Z"/>
  <path fill="#0057ff" d="M386 305c15-12 28-10 39 5-15 3-28 1-39-5Z"/>
  <path fill="#0057ff" d="M161 173c41-7 78-4 111 9-40 12-80 23-120 33-3-17 0-31 9-42Z"/>
</svg>
